<svg fill="#ffffff" xmlns="http://www.w3.org/2000/svg" viewBox="0 0 2001.02 251.42">
    <g id="Capa_2" data-name="Capa 2">
        <g id="Capa_1-2" data-name="Capa 1">
            <g id="Layer_2" data-name="Layer 2">
                <path
                    d="M0,4.72q16.26.53,31.65.79t30.25.26q12.58,0,28.16-.26t34.1-.79V19.06h-2.1q-19.06,0-25.62,6.12T89.9,49.49v131q0,28,9.44,37.69t35.67,9.7q30.08,0,46.6-12.94T203.73,174h14.69L217,245.7q-20.81-.36-43.8-.53T107.38,245q-31,0-100.73,1.22L0,246.39v-15H3.85q16.61,0,22.82-7.43t6.21-28.42V47.39q0-16.26-6.74-22.3t-24.39-6H0V4.72Z" />
                <path
                    d="M339.9,0h17.49L438,202.67q5.78,15.21,13.9,21.42t22.47,7.26V246q-15-.53-30.43-.79T412.47,245q-16.44,0-31.82.26T351.1,246V231.35q19.23-.87,24.92-3.85T381.7,217a47.91,47.91,0,0,0-1.84-11,139.19,139.19,0,0,0-5.33-16.09l-7.17-19.06H287.62l-6.12,14A121.06,121.06,0,0,0,276,200.48a47.49,47.49,0,0,0-2,11.28q0,10,7.26,14.78t22.47,4.81L303.54,246q-11.21-.53-22.21-.79T259.65,245q-10.32,0-20.81.26t-21,.79l-.17-14.69q12.94-1,21.51-7.69t14.34-20.29ZM329.06,69.94l-33.92,83.41h65.58Z" />
                <path
                    d="M937.09,125.38q9.09,4,29.55,32.35c.93,1.28,1.69,2.33,2.27,3.15l34.8,48.62q7.51,10.84,15.83,16.7a37.32,37.32,0,0,0,17.4,6.91V246.4q-6.3-.53-17.75-.78t-28.06-.27q-11.71,0-17.31.18c-3.73.11-7.17.29-10.32.52l-57.71-82.71Q893.9,146,887.52,141.22a23.1,23.1,0,0,0-14.25-4.81,8.58,8.58,0,0,0-1.66.26,8.89,8.89,0,0,1-1.84.26v61.56q0,18.72,7,25.62T903,231h1.75v15q-28.34-.52-49.31-.79t-34.1-.26q-18,0-26.49.26t-15,.79V231q20.8,0,27.89-7t7.08-27.8V48.09q0-18-6.73-23.52t-28.24-5.86V4q6.65.53,14.6.79t24.39.26q14.52,0,41-.53T898.27,4q50.19,0,74.41,15t24.22,45.9q0,24.13-15.56,40T937.09,125.38Zm-67.32-5.07c1.4.12,2.94.2,4.63.26s4.17.09,7.43.09q27.79,0,41.18-12.15T936.39,71q0-26.23-12.15-38.39T885.86,20.46q-10.14,0-13.12,2.62c-2,1.75-3,5.54-3,11.37Z" />
                <path
                    d="M1271.62,5.07v14a37.24,37.24,0,0,0-16,5.94q-6.55,4.55-12,13.64l-65.4,108.6v51.24q0,19.59,7.17,26.23t28.16,6.65v14.69q-12.42-.53-29.73-.79t-39.7-.26q-26.23,0-37.6.26t-19.59.79V231.36q21-.35,28-6.65t7-24.83V151.44l-56.31-101.6q-10.84-19.76-18-25.18t-18.36-6.3V4.72q14.34.53,28.59.79t28.59.26q27.45,0,58.76-1h1.75v14q-14.16.18-20.46,3.32t-6.3,9.79q0,4.2,2.89,11.37a213.47,213.47,0,0,0,10.75,21.34l35,64,35.5-58.23a138.15,138.15,0,0,0,10.32-19.94c2.21-5.6,3.32-10.43,3.32-14.52q0-8.57-5.42-12.24t-20.64-4.55l-.17-14q5.07.36,11.63.53t21.42.17q8.91,0,35-.53C1265,5.13,1268.94,5.07,1271.62,5.07Z" />
                <path
                    d="M1293.48,5.07q6.82.52,15,.79t24,.26q7,0,27.63-.35T1394,5.42q58.76,0,85.25,15.26t26.49,48.57q0,34.53-26,51.1t-80.62,16.57q-7,0-10.67-.09t-6.82-.26v63.89q0,18.07,7.26,24.49t27,6.41h1.92l-.18,14.69q-16.08-.53-36.81-.79T1335.1,245q-19.24,0-27.36.26t-14.26.79V231.36q18.7-1.41,25.1-7.37t6.38-21.76V48.34q0-17.08-6-22.49t-25.53-7Zm88.14,113.84c1.05.12,2.25.21,3.59.26s3.35.09,6,.09q28.5,0,40.92-11.85t12.42-39.2q0-22.3-11.19-34t-32.88-11.68q-11.19,0-15,2c-2.56,1.34-3.85,3.86-3.85,7.58v86.77Z" />
                <path
                    d="M1527.81,4.72q17.65.87,39.87,1.31t53.51.44q44.76,0,77.73-.44t60.77-1.31L1763,73.8h-14q-4.38-27.11-17.84-38.47T1689.56,24q-2.62,0-6.3.17t-11.19.7V202.32q0,17,7.52,22.91t29.38,6.65v14.51q-13.63-.69-28.42-1t-31.74-.35q-17.13,0-34.36.35t-34.36,1V231.7q21.51-1,28.24-6.73t6.74-22.65V24.83q-2.8-.34-5.86-.44c-2-.05-5-.09-8.83-.09q-30.08,0-43.46,10.93t-17.75,38.56h-14.34Z" />
                <path
                    d="M1866.54,0H1884l80.62,202.67q5.77,15.21,13.9,21.42t22.47,7.26V246q-15-.53-30.43-.79t-31.48-.26q-16.44,0-31.82.26t-29.55.79V231.35q19.23-.87,24.92-3.85t5.68-10.49a47.91,47.91,0,0,0-1.84-11,139.19,139.19,0,0,0-5.33-16.09L1894,170.84h-79.74l-6.12,14a121.06,121.06,0,0,0-5.51,15.65,47.49,47.49,0,0,0-2,11.28q0,10,7.26,14.78t22.47,4.81l-.17,14.69q-11.21-.53-22.21-.79t-21.68-.26q-10.32,0-20.81.26t-21,.79l-.17-14.69q12.95-1,21.51-7.69t14.34-20.29ZM1855.7,69.94l-33.92,83.41h65.58Z" />
                <path
                    d="M736.19,24.8l9.23-19.16h11.5v75.6h-11.5q-8.19-29.08-25.78-44.68T677.66,21Q644,21,624.44,49.71c-13.06,19.16-21.56,45.46-21.56,78.91,0,32.28,4.78,57.43,17.73,75.42s30.86,27,53.74,27q28,0,46.6-17.94c12.37-12,20.75-28.92,24.47-50.86h11.5v83.44h-11.5l-7.49-21.43q-18.28,13.94-36.75,20.55a115.85,115.85,0,0,1-39.37,6.62q-25.21,0-46-6.83A112.43,112.43,0,0,1,572,218.24q-34.23-33.18-34.23-87.36c0-16.84,6.76-59.48,34-86.68C585.12,30.83,599,20.36,615.47,12.87a125.7,125.7,0,0,1,52.6-11.24,108.56,108.56,0,0,1,35,5.66A125.12,125.12,0,0,1,736.19,24.8Z" />
            </g>
        </g>
    </g>
</svg>