<svg xmlns="http://www.w3.org/2000/svg" viewBox="0 0 138.84 96.09"><defs><style>.cls-1{fill:#283480;}.cls-2{fill:#009fe3;}.cls-3{fill:#fff;}</style></defs><g id="Capa_2" data-name="Capa 2"><g id="Capa_1-2" data-name="Capa 1"><path class="cls-1" d="M138.84,45.4c0-25-31.08-45.4-69.42-45.4S0,20.39,0,45.4c0,.65,0,2.44,0,2.66,0,26.54,27.16,48,69.41,48,42.52,0,69.43-21.49,69.43-48Z"/><path class="cls-2" d="M136.18,45.38c0,23.58-29.88,42.7-66.74,42.7S2.69,69,2.69,45.38,32.57,2.68,69.44,2.68,136.18,21.8,136.18,45.38Z"/><path class="cls-3" d="M47.27,31.91c0,.07-.7.76-.27,1.31,1.06,1.35,4.31,2.12,7.6,1.38,2-.44,4.47-2.44,6.9-4.37,2.64-2.09,5.25-4.19,7.88-5a9,9,0,0,1,5.75-.15,17.58,17.58,0,0,1,5.24,3.05c4.56,3.44,22.93,19.47,26.1,22.24a157.68,157.68,0,0,1,29.35-9.45c-1.34-8.23-6.35-15.75-13.94-21.92-10.58,4.45-23.51,6.76-36.15.59-.07,0-6.91-3.27-13.66-3.11C62,16.7,57.7,21,53.1,25.63Z"/><path class="cls-3" d="M105.72,52.09c-.21-.19-21.59-18.9-26.43-22.54-2.81-2.1-4.36-2.64-6-2.84a8.07,8.07,0,0,0-2.85.27c-2.26.61-5.2,2.58-7.82,4.66S57.36,35.82,55,36.35a12.34,12.34,0,0,1-8.41-1.26,3.73,3.73,0,0,1-1.39-1.53,2.57,2.57,0,0,1,.71-2.79l5.9-6.38,2.08-2.05a39.43,39.43,0,0,0-5.37,1.21,23.23,23.23,0,0,1-6.28,1.18,59.86,59.86,0,0,1-6.4-1,95.35,95.35,0,0,1-17-6.15c-8.39,6.25-14,14.05-15.62,22.65,1.21.32,3.15.9,4,1.08,19,4.22,24.89,8.57,26,9.47a6.27,6.27,0,0,1,9.84.58,7.19,7.19,0,0,1,4.53-1.59,8.25,8.25,0,0,1,2.71.48A6.22,6.22,0,0,1,54,53.69a6.13,6.13,0,0,1,2.64-.56,8,8,0,0,1,3.16.69c3.5,1.51,4,4.94,3.73,7.53a6.28,6.28,0,0,1,.75,0,7.53,7.53,0,0,1,7.52,7.53,7.37,7.37,0,0,1-.9,3.55c1.13.64,4,2.07,6.54,1.75,2-.25,2.78-.94,3.06-1.33s.38-.58.2-.8l-5.36-6s-.88-.84-.59-1.16.85.15,1.23.47c2.73,2.27,6.06,5.71,6.06,5.71s.27.47,1.51.69a5.59,5.59,0,0,0,4.23-1,6.52,6.52,0,0,0,.93-1l-.06,0a2.84,2.84,0,0,0-.15-3.52l-6.26-7s-.89-.82-.59-1.15.85.14,1.24.47c2,1.65,4.78,4.46,7.46,7.09.52.38,2.88,1.84,6-.21a4.32,4.32,0,0,0,2.22-3.92A4.48,4.48,0,0,0,97.27,59l-8.54-8.59s-.9-.77-.59-1.16.85.15,1.23.47c2.73,2.28,10.09,9,10.09,9a5.19,5.19,0,0,0,5.79-.12,3.86,3.86,0,0,0,1.91-3.06A4.51,4.51,0,0,0,105.72,52.09Z"/><path class="cls-3" d="M64.3,63c-1.32,0-2.77.77-3,.65s.08-.6.2-.91,1.88-5.55-2.38-7.37c-3.25-1.4-5.24.17-5.92.88-.18.19-.26.18-.28-.06a4.7,4.7,0,0,0-3.3-4.36,6.42,6.42,0,0,0-7.24,2.58,4.64,4.64,0,1,0-1.38,4,.23.23,0,0,1,0,.16,6.11,6.11,0,0,0,3.83,7,4.57,4.57,0,0,0,4.49-.69c.37-.26.43-.15.38.19-.16,1.08,0,3.38,3.27,4.7a4.18,4.18,0,0,0,4.87-.91c.41-.38.52-.32.55.27A5.86,5.86,0,1,0,64.3,63Z"/><path class="cls-1" d="M106.55,49.85c-6.58-5.75-21.8-19-25.93-22.07a18.12,18.12,0,0,0-5.37-3.13,8.89,8.89,0,0,0-2.64-.41,11,11,0,0,0-3.35.57c-2.66.84-5.31,3-7.88,5l-.13.1c-2.39,1.9-4.86,3.87-6.73,4.29a11.68,11.68,0,0,1-2.5.28c-2.09,0-4-.61-4.68-1.51-.12-.15,0-.39.23-.74l0,0,5.79-6.25c4.54-4.53,8.82-8.82,18.69-9h.49a34.87,34.87,0,0,1,13,3.07,40.22,40.22,0,0,0,17.67,4.24,46.22,46.22,0,0,0,19.41-4.65c-.76-.63-1.54-1.25-2.35-1.86a42.78,42.78,0,0,1-17,3.87,37.49,37.49,0,0,1-16.54-4,37.28,37.28,0,0,0-14.12-3.33H72c-8.29.2-13,3.14-16.1,5.72a32,32,0,0,0-8,1.46,21.8,21.8,0,0,1-5.65,1.09c-.73,0-2-.07-2.15-.07-2-.06-12.23-2.57-20.35-5.64-.83.59-1.63,1.19-2.4,1.81,8.48,3.48,18.8,6.17,22,6.38.91.05,1.88.16,2.84.16A24.19,24.19,0,0,0,48.63,24c1.23-.34,2.58-.72,4-1L51.5,24.1l-5.89,6.37a3,3,0,0,0-.8,3.25,4.05,4.05,0,0,0,1.54,1.72A12.33,12.33,0,0,0,52.6,37a11.6,11.6,0,0,0,2.49-.26c2.47-.56,5.06-2.62,7.8-4.8,2.18-1.73,5.29-3.94,7.66-4.59a8.81,8.81,0,0,1,2.14-.29,4.8,4.8,0,0,1,.55,0c1.57.2,3.09.74,5.8,2.77,4.83,3.63,26.21,22.33,26.42,22.52a4.11,4.11,0,0,1,1.28,3.14,3.42,3.42,0,0,1-1.7,2.73,5.22,5.22,0,0,1-2.81.87,4.71,4.71,0,0,1-2.48-.71c-.08-.07-7.4-6.78-10.1-9a2.22,2.22,0,0,0-1.27-.68.69.69,0,0,0-.55.27c-.43.52,0,1.24.61,1.72L97,59.31a4,4,0,0,1,1.18,2.32,3.88,3.88,0,0,1-2,3.54,5.48,5.48,0,0,1-3,1,4.42,4.42,0,0,1-2.44-.74l-1.23-1.21c-2.24-2.21-4.56-4.49-6.25-5.91a2.33,2.33,0,0,0-1.28-.66.74.74,0,0,0-.54.23c-.19.22-.33.6.16,1.24a3.07,3.07,0,0,0,.43.48l6.24,7a2.39,2.39,0,0,1,.14,3l-.22.28a4.44,4.44,0,0,1-3.63,1.53,5.38,5.38,0,0,1-.84-.07,2.14,2.14,0,0,1-1.23-.52l-.08-.08c-.34-.35-3.49-3.57-6.09-5.74A2.16,2.16,0,0,0,75,64.37a.72.72,0,0,0-.56.25c-.52.56.26,1.41.59,1.72l5.32,5.87a1.11,1.11,0,0,1-.2.36c-.19.26-.84.91-2.77,1.15a5.53,5.53,0,0,1-.71,0,12.21,12.21,0,0,1-5.21-1.54,7.94,7.94,0,0,0-7.18-11.33H64c.15-2-.14-5.8-4-7.46a8.24,8.24,0,0,0-3.32-.73,6.59,6.59,0,0,0-2.43.44,6.73,6.73,0,0,0-3.89-3.31,8.87,8.87,0,0,0-2.85-.5,7.55,7.55,0,0,0-4.44,1.42,6.71,6.71,0,0,0-10-.56c-1.65-1.26-8.23-5.44-25.83-9.44-.85-.19-2.81-.75-4-1.1a27.61,27.61,0,0,0-.46,2.89l3.89.92c18,4,23.92,8.14,24.92,8.93A6.91,6.91,0,0,0,31.08,55a6.76,6.76,0,0,0,6.74,6.75,6.43,6.43,0,0,0,1.24-.12,7.84,7.84,0,0,0,5.08,5.87,6.32,6.32,0,0,0,3.93.28,7.79,7.79,0,0,0,6.83,4.45A6,6,0,0,0,57,71.85a7.92,7.92,0,0,0,13,2.51,14.82,14.82,0,0,0,6.73,2,8.6,8.6,0,0,0,1-.06c2.71-.35,4-1.41,4.56-2.24a3.4,3.4,0,0,0,.28-.45,8.14,8.14,0,0,0,2.15.34,7.25,7.25,0,0,0,4.35-1.56,6,6,0,0,0,2.56-3.73.09.09,0,0,0,0,0,7.14,7.14,0,0,0,1.45.15,8.11,8.11,0,0,0,4.47-1.42,6.47,6.47,0,0,0,3.21-5.74,7.19,7.19,0,0,0,1.47.15,7.74,7.74,0,0,0,4.18-1.28,6.13,6.13,0,0,0,2.91-4.74,6.36,6.36,0,0,0-.92-3.82,172.22,172.22,0,0,1,27.73-8.68c-.08-1-.22-1.93-.39-2.88A158.38,158.38,0,0,0,106.55,49.85ZM64.3,74.27a5.4,5.4,0,0,1-5.43-5.19c0-.25,0-.91-.59-.91a1,1,0,0,0-.66.35A3.83,3.83,0,0,1,55,69.73a4.65,4.65,0,0,1-1.76-.39c-3.1-1.25-3.14-3.38-3-4.24a.83.83,0,0,0-.11-.65l-.19-.17h-.2a1,1,0,0,0-.54.22,4.5,4.5,0,0,1-2.63.94A4.13,4.13,0,0,1,45,65.15a5.69,5.69,0,0,1-3.55-6.6.57.57,0,0,0-.18-.54L41,57.78l-.27.26A4.24,4.24,0,1,1,42,54.45l.14,1.14.63-1a6.22,6.22,0,0,1,4.93-2.7,6.35,6.35,0,0,1,1.84.29,4.29,4.29,0,0,1,3,4c0,.55.43.58.51.58a.71.71,0,0,0,.49-.25,4.24,4.24,0,0,1,3.12-1.32,5.89,5.89,0,0,1,2.33.53c4,1.71,2.18,6.77,2.16,6.83-.34.84-.35,1.21,0,1.42l.16.08h.11a2.71,2.71,0,0,0,.77-.21,6.9,6.9,0,0,1,2.13-.46h0a5.44,5.44,0,1,1,0,10.87Z"/></g></g></svg>