<svg xmlns="http://www.w3.org/2000/svg" viewBox="0 0 926.99 1401.81"><defs><style>.cls-1{fill:none;stroke:#fff;stroke-miterlimit:10;stroke-width:3px;}</style></defs><g id="Capa_2" data-name="Capa 2"><g id="Layer_5" data-name="Layer 5"><path class="cls-1" d="M242,1336.47a29.66,29.66,0,0,1,7.69-13.1,23.54,23.54,0,0,1,9.9-5.83,22.76,22.76,0,0,1,19.79,3.68,30.87,30.87,0,0,1,11.24,16.23,37.51,37.51,0,0,1,1.55,8.38,22,22,0,0,1-.16,5.41"/><path class="cls-1" d="M252.46,1400.46A51,51,0,0,1,238.15,1390a48.6,48.6,0,0,1-10.48-16.61,42.28,42.28,0,0,1-2.73-15.64,35,35,0,0,1,.61-6c.18-.84.38-1.65.59-2.44.11-.39.23-.78.34-1.16l.38-1c2.08-5.42,4.91-8.17,7.62-9.72a11.35,11.35,0,0,1,4.07-1.27,10.23,10.23,0,0,1,3.93.4A14.55,14.55,0,0,1,249,1341a38.45,38.45,0,0,1,5,7.66,62.89,62.89,0,0,0,5.81,9.8,23.55,23.55,0,0,0,4.48,4.39,32,32,0,0,0,5,3"/><path class="cls-1" d="M274.74,1354.84a2.49,2.49,0,0,1-1.34-1.37,1.52,1.52,0,0,1,.33-1.43,7.48,7.48,0,0,1,3.83-2.1,17.59,17.59,0,0,1,6.25-.46,35.79,35.79,0,0,1,7.36,1.5l3.71,1.15c1.2.35,2.38.66,3.5.89,2.27.34,4.49.35,6.37-1.61l.33-.37c.11-.15.23-.32.33-.48a8.31,8.31,0,0,0,.59-1,11.28,11.28,0,0,0,.87-3,20.56,20.56,0,0,0-.95-9.38,29.86,29.86,0,0,0-6.32-10.79,27.23,27.23,0,0,0-8-6.09"/><path class="cls-1" d="M272.35,1288.1a26.21,26.21,0,0,1,18.57-9.35,25.14,25.14,0,0,1,18.73,7,27.18,27.18,0,0,1,8.29,18.09,25.43,25.43,0,0,1-5.88,18.06"/><path class="cls-1" d="M244,1293.57a22.22,22.22,0,0,1,14.27-9.16,17.73,17.73,0,0,1,14.41,4,19.36,19.36,0,0,1,6.63,13.3,21.72,21.72,0,0,1-4.19,14.56"/><path class="cls-1" d="M285.06,1323.49a17,17,0,0,1,12.47-6.85,19.11,19.11,0,0,1,13.84,4.68c8.09,6.93,9.53,18.39,4.81,24.86"/><path class="cls-1" d="M305.82,1252.48a26.1,26.1,0,0,1,18.83-7.6,25.58,25.58,0,0,1,18.23,8.15,26.58,26.58,0,0,1,7.16,18.59,25.61,25.61,0,0,1-7.57,18"/><path class="cls-1" d="M278.3,1253.63c7.9-8.23,20.4-8.4,27.85-.82a19.75,19.75,0,0,1-.06,27.48"/><path class="cls-1" d="M314.94,1288.78a18.72,18.72,0,0,1,26.9.15c7.45,7.59,7.67,19.44.9,26.5"/><path class="cls-1" d="M340.6,1219.7a25.84,25.84,0,0,1,36.92,2.08,26.25,26.25,0,0,1-1.93,36.59"/><path class="cls-1" d="M313.35,1219.22a19.3,19.3,0,0,1,27.56.83,19.52,19.52,0,0,1-1.28,27.32"/><path class="cls-1" d="M348,1256.33a18.92,18.92,0,0,1,27,1.36c7.12,7.91,6.73,19.86-.69,26.79"/><path class="cls-1" d="M376.33,1188.41a26.4,26.4,0,0,1,2.19-1.67c.38-.26.76-.5,1.15-.74l.58-.34.29-.17.42-.27a46.47,46.47,0,0,1,6.77-3.6,33.74,33.74,0,0,1,6.42-2.06,25,25,0,0,1,3-.43l1.41-.06c.23,0,.46,0,.69,0l.73.18a28.76,28.76,0,0,1,9.91,7.07,22.81,22.81,0,0,1,4.94,9.38,35.62,35.62,0,0,1,1,9.88,60.22,60.22,0,0,1-.76,8.27l-.08.46,0,.58c0,.37,0,.75-.05,1.13,0,.75-.07,1.46-.13,2.13a35.31,35.31,0,0,1-.43,3.6,11.81,11.81,0,0,1-.8,2.73l-.07.14-.2.26-.42.49c-.29.33-.58.66-.89,1a23.94,23.94,0,0,1-1.93,1.83"/><path class="cls-1" d="M349.19,1187a19.28,19.28,0,0,1,27.44,1.81,19.48,19.48,0,0,1-2.16,27.24"/><path class="cls-1" d="M382.52,1225.26a19,19,0,0,1,27,2.23c6.86,8.13,6.08,20.08-1.66,26.82"/><path class="cls-1" d="M425.19,1166a16.37,16.37,0,0,1,3.74-1,15.86,15.86,0,0,1,3.92-.23,26.68,26.68,0,0,1,4.09.46c1.4.28,2.86.72,4.26,1.15a37,37,0,0,1,8.59,4.2,30.18,30.18,0,0,1,7.57,7,22.77,22.77,0,0,1,4.32,9.47,22.31,22.31,0,0,1-3,15.57,26.69,26.69,0,0,1-3.63,4.78,35,35,0,0,1-4.87,4.07,31.33,31.33,0,0,1-5.93,3.07"/><path class="cls-1" d="M406.15,1151.65l1-.11.79-.14c.5-.08,1.11-.18,1.52-.22a5.86,5.86,0,0,1,1.1.11,8.11,8.11,0,0,1,2.18.58,13.09,13.09,0,0,1,2.27,1.28,18.29,18.29,0,0,1,2.26,1.7,30.37,30.37,0,0,1,4.46,5,29.1,29.1,0,0,1,3.65,6.59,22.17,22.17,0,0,1,1.61,7.44,16.26,16.26,0,0,1-1.27,6.89,15.64,15.64,0,0,1-1.7,3,15.08,15.08,0,0,1-2.41,2.45,14.35,14.35,0,0,1-3,1.91,16.34,16.34,0,0,1-1.7.61,17.78,17.78,0,0,1-2.09.49"/><path class="cls-1" d="M417.59,1201.2a16.15,16.15,0,0,1,1.77-.22,17.58,17.58,0,0,1,2.05-.09,25.53,25.53,0,0,1,4,.15,23.73,23.73,0,0,1,3.9.82,24.33,24.33,0,0,1,3.69,1.26,23.62,23.62,0,0,1,6.52,4.24,17.32,17.32,0,0,1,4.4,6.31,14.76,14.76,0,0,1,.85,7.73,17.37,17.37,0,0,1-3.32,7.61,24.6,24.6,0,0,1-3.13,3.48,29.11,29.11,0,0,1-4.05,2.91,30.52,30.52,0,0,1-4.8,2.34c-.85.3-1.74.57-2.64.81l-.4.14-.17,0h0"/><path class="cls-1" d="M452.65,1146.41c.46-.47.9-1,1.36-1.42a13.59,13.59,0,0,1,1.48-1.25c.52-.4,1.11-.72,1.65-1.08a17.16,17.16,0,0,1,1.73-1,29.61,29.61,0,0,1,8.21-2.49,41.6,41.6,0,0,1,4.65-.46,35.35,35.35,0,0,1,4.9.18,33.25,33.25,0,0,1,5,.93,28.92,28.92,0,0,1,4.95,1.8,24.61,24.61,0,0,1,4.51,2.78,21.44,21.44,0,0,1,3.64,3.61,22,22,0,0,1,2.68,4.44,20.6,20.6,0,0,1,1.59,5.12,25.18,25.18,0,0,1-.68,11.46c-.28,1-.61,2-1,3a25.38,25.38,0,0,1-1.39,2.88c-.52.95-1.09,1.89-1.71,2.81a20.82,20.82,0,0,1-2,2.67"/><path class="cls-1" d="M430.94,1141.29a4.69,4.69,0,0,1,.91-.55,6,6,0,0,1,.95-.46,7.68,7.68,0,0,1,2.23-.44,16.15,16.15,0,0,1,5.39.51,30.4,30.4,0,0,1,12.59,6.37c4,3.43,6.6,7.86,7,12.52a15,15,0,0,1-1,6.79,16.29,16.29,0,0,1-1.77,3,16.75,16.75,0,0,1-1.16,1.39,18.24,18.24,0,0,1-1.4,1.19"/><path class="cls-1" d="M462.19,1181.3c.56-.42,1.14-.82,1.72-1.19s1.14-.76,1.73-1.1a22.81,22.81,0,0,1,3.65-1.7,25.48,25.48,0,0,1,7.69-1.73c5.16-.4,10.5.74,14.56,4.2s5.89,8.73,5,14.7a25.34,25.34,0,0,1-3.34,9,34.85,34.85,0,0,1-3.2,4.29c-.61.69-1.25,1.38-1.93,2s-1.44,1.24-2.21,1.83"/><path class="cls-1" d="M468.15,1116c1.22-5.1,4.71-9.33,9.53-13a35.67,35.67,0,0,1,4-2.52,34.7,34.7,0,0,1,4.38-2.08,30.71,30.71,0,0,1,10.12-2.16,22.71,22.71,0,0,1,10.18,1.93,21.73,21.73,0,0,1,4.47,2.72,22.82,22.82,0,0,1,3.7,3.83,23.55,23.55,0,0,1,2.89,4.86,30.73,30.73,0,0,1,1.79,5.69,28.34,28.34,0,0,1,.52,6.29,26.22,26.22,0,0,1-.22,3.29c-.16,1.09-.38,2.2-.64,3.3"/><path class="cls-1" d="M446.46,1121.55a5.83,5.83,0,0,1,1.24-1.78,8,8,0,0,1,1.74-1.48,16.73,16.73,0,0,1,2.32-1.16,18.85,18.85,0,0,1,2.72-.9,31.08,31.08,0,0,1,3.18-.59,33.82,33.82,0,0,1,3.43-.27,29.65,29.65,0,0,1,7.52.78,22,22,0,0,1,7,2.95,16.89,16.89,0,0,1,2.8,2.28,15.54,15.54,0,0,1,2.14,2.72,15.88,15.88,0,0,1,1.5,3.14,13.05,13.05,0,0,1,.66,3.39,15.51,15.51,0,0,1-.13,3.53,17.67,17.67,0,0,1-1.12,3.46"/><path class="cls-1" d="M492.6,1142.74a22.61,22.61,0,0,1,2-3.6,22.9,22.9,0,0,1,2.41-3.2,31,31,0,0,1,2.88-2.74,23.14,23.14,0,0,1,3.16-2.29,24.43,24.43,0,0,1,3.51-1.75,22,22,0,0,1,3.67-1.16,17.26,17.26,0,0,1,7.7,0,14.84,14.84,0,0,1,6.82,3.71,16.58,16.58,0,0,1,2.57,3.16,19.53,19.53,0,0,1,1.8,3.89,24.38,24.38,0,0,1,1.06,4.53,24.13,24.13,0,0,1,.1,5,32,32,0,0,1-.81,5.26,37.18,37.18,0,0,1-1.91,5.27"/><path class="cls-1" d="M468,1082.29a13,13,0,0,1-.56-3.82c0-.66,0-1.3,0-2a17,17,0,0,1,.22-2c.11-.66.26-1.34.44-2s.33-1.33.55-2a27.5,27.5,0,0,1,1.67-4.11,35.85,35.85,0,0,1,5.21-8,30.81,30.81,0,0,1,8-6.65,22.47,22.47,0,0,1,9.88-3,21.62,21.62,0,0,1,10.29,1.93,26.34,26.34,0,0,1,4.79,2.95,23.69,23.69,0,0,1,2.24,1.92c.69.71,1.36,1.47,2,2.27s1.26,1.64,1.84,2.52a19.26,19.26,0,0,1,1.61,2.79,38.55,38.55,0,0,1,2.36,6.26"/><path class="cls-1" d="M451.33,1097a5.45,5.45,0,0,1,.2-2.08,11.85,11.85,0,0,1,2.41-4.09,28.13,28.13,0,0,1,2.05-2,31,31,0,0,1,12.48-6.61c5.18-1.34,10.16-.89,14.25,1.44a12.57,12.57,0,0,1,2.74,2.07,15.87,15.87,0,0,1,2.2,2.68,11.87,11.87,0,0,1,1.45,3.2,15.45,15.45,0,0,1,.68,3.57"/><path class="cls-1" d="M502,1094.54a23.76,23.76,0,0,1,.07-4.14,36.14,36.14,0,0,1,.72-4,22.75,22.75,0,0,1,1.23-3.77,34.1,34.1,0,0,1,1.78-3.52c2.6-4.45,6.71-8.21,11.83-9.54s10.46.22,14.9,4.37a19.41,19.41,0,0,1,3,3.57A30,30,0,0,1,538,1082a25.17,25.17,0,0,1,1.66,5.1,36.35,36.35,0,0,1,.82,5.63"/><path class="cls-1" d="M452,1052.28c-3.48-3.89-5-9.12-5.2-15.21a34.06,34.06,0,0,1,5-19,22.75,22.75,0,0,1,7.41-7.27,21.21,21.21,0,0,1,10-3,22.81,22.81,0,0,1,5.62.41,24.71,24.71,0,0,1,5.7,1.78c.94.41,1.88.87,2.81,1.39s1.79,1.13,2.67,1.76a30.1,30.1,0,0,1,4.94,4.48"/><path class="cls-1" d="M444.1,1073.27c-1.52-2.57-1.2-5.86.23-9.68a30.58,30.58,0,0,1,8-11.62c4-3.56,8.68-5.49,13.35-5.27a14.17,14.17,0,0,1,11.58,7"/><path class="cls-1" d="M487.84,1047.49a27.09,27.09,0,0,1-3.68-15.39c.3-5.17,2.18-10.34,6.12-13.87s9.44-4.66,15.24-3,11.64,6.16,15.5,12.73"/><path class="cls-1" d="M424.08,1033.07c-4.9-1.85-8.68-5.79-11.67-11.09a36.39,36.39,0,0,1-3.51-8.91,30,30,0,0,1-.85-10.27,22.8,22.8,0,0,1,3.22-9.89,21.48,21.48,0,0,1,7.53-7.25,25.39,25.39,0,0,1,11-3.29,28,28,0,0,1,6.31.26,30.45,30.45,0,0,1,6.44,1.68"/><path class="cls-1" d="M426.69,1055.25c-2.41-1.5-3.67-4.56-4.16-8.61a29.39,29.39,0,0,1,0-6.64,29.88,29.88,0,0,1,1.72-7.36,22.19,22.19,0,0,1,3.81-6.58,16.89,16.89,0,0,1,5.59-4.28,14.17,14.17,0,0,1,13.5.84"/><path class="cls-1" d="M453.66,1012.23a27.14,27.14,0,0,1-10.41-11.94,22.79,22.79,0,0,1-2-7.48,17.31,17.31,0,0,1,1-7.65c1.87-5,6.2-8.51,12.1-9.74s13.18.05,19.75,4.18"/><path class="cls-1" d="M390.42,1028.91c-5.18.61-10.35-1.13-15.45-4.44a36.91,36.91,0,0,1-7.23-6.27,30.34,30.34,0,0,1-5.52-8.72,23,23,0,0,1-1.72-10.25,21.49,21.49,0,0,1,3.32-9.91,25.32,25.32,0,0,1,8.26-8,29,29,0,0,1,5.73-2.69c1-.35,2.08-.66,3.16-.92a32.77,32.77,0,0,1,3.34-.56"/><path class="cls-1" d="M403,1047.37c-2.84-.23-5.35-2.32-7.65-5.71a30.71,30.71,0,0,1-4.93-13.21,21.83,21.83,0,0,1,.34-7.6,16.73,16.73,0,0,1,3-6.37,14.22,14.22,0,0,1,12.37-5.5"/><path class="cls-1" d="M407,996.76A27.05,27.05,0,0,1,392.28,991a22.54,22.54,0,0,1-5.21-5.72,17.21,17.21,0,0,1-2.66-7.23,14.77,14.77,0,0,1,1.13-7.68,17.86,17.86,0,0,1,5.13-6.55c4.63-3.74,11.73-6,19.46-5.42"/><path class="cls-1" d="M353.62,1041.59a26.07,26.07,0,0,1-20.78-47.83"/><path class="cls-1" d="M378.32,1051.36c-.18.08-.31.11-.53.19s-.62.22-.93.32a17.57,17.57,0,0,1-1.86.49,19.28,19.28,0,0,1-17.89-32.14,18.81,18.81,0,0,1,2.86-2.46,18,18,0,0,1,1.63-1,14.08,14.08,0,0,1,1.71-.83"/><path class="cls-1" d="M358.53,1004.61c-.67.26-1.29.49-1.9.69a18.23,18.23,0,0,1-1.86.49,19.28,19.28,0,0,1-17.89-32.14,18.81,18.81,0,0,1,2.86-2.46,18,18,0,0,1,1.63-1c.28-.16.57-.31.86-.46l1.29-.56"/><path class="cls-1" d="M310.82,1060.18A26.07,26.07,0,0,1,290,1012.35"/><path class="cls-1" d="M335.9,1069.77a19.25,19.25,0,0,1-15.34-35.32"/><path class="cls-1" d="M315.67,1023.2a19.25,19.25,0,0,1-15.34-35.32"/><path class="cls-1" d="M268,1078.78a26.08,26.08,0,0,1-20.78-47.84"/><path class="cls-1" d="M293.11,1088.36A19.26,19.26,0,0,1,277.76,1053"/><path class="cls-1" d="M272.87,1041.79a19.25,19.25,0,0,1-15.34-35.32"/><path class="cls-1" d="M225.22,1097.37c-.41.18-.82.34-1.24.5s-1,.34-1.48.49c-1,.31-2,.57-3.05.79a32,32,0,0,1-6,.7,28.1,28.1,0,0,1-10.9-2.41,22.58,22.58,0,0,1-12.34-16,31.46,31.46,0,0,1,2.42-19.56,24.55,24.55,0,0,1,4.81-7.38,18.81,18.81,0,0,1,3.08-2.85,15,15,0,0,1,1.74-1.1c.32-.18.58-.3,1-.49s.8-.38,1.21-.56"/><path class="cls-1" d="M250.31,1107A19.26,19.26,0,0,1,235,1071.64"/><path class="cls-1" d="M230.08,1060.39a19.26,19.26,0,0,1-15.35-35.33"/><path class="cls-1" d="M170.82,1110.06a31.64,31.64,0,0,1-6.35-.35,33.65,33.65,0,0,1-5.83-1.7,24.72,24.72,0,0,1-9.23-6.31,21.37,21.37,0,0,1-3.1-4.23,22,22,0,0,1-1.95-4.82,23.3,23.3,0,0,1-.42-10.36,29.7,29.7,0,0,1,3.6-9.69,32.32,32.32,0,0,1,2.77-4,35,35,0,0,1,3.19-3.54,29.85,29.85,0,0,1,7.2-5,17.29,17.29,0,0,1,3.9-1.38,17.55,17.55,0,0,1,4.1-.66"/><path class="cls-1" d="M197.58,1125.76a32.34,32.34,0,0,1-10.26.23,25.44,25.44,0,0,1-8.57-3.25,18.46,18.46,0,0,1-3.27-2.55A17.43,17.43,0,0,1,173,1117a15.52,15.52,0,0,1-2.22-7.42,17.47,17.47,0,0,1,1.42-7.55,20.69,20.69,0,0,1,1.81-3.34,24.37,24.37,0,0,1,2.36-3.1,23,23,0,0,1,6.09-4.78A21.81,21.81,0,0,1,190,1088"/><path class="cls-1" d="M187.59,1076a17.13,17.13,0,0,1-7.19-.29,16.61,16.61,0,0,1-6.05-3.53,16.13,16.13,0,0,1-2.3-2.63,19.5,19.5,0,0,1-1.73-3.22,21.35,21.35,0,0,1-1.58-7.45,26.56,26.56,0,0,1,.79-7.52,24.37,24.37,0,0,1,1.07-3.29,25.39,25.39,0,0,1,1.39-3,15,15,0,0,1,3.57-4.5,8.38,8.38,0,0,1,4.46-2.31"/><path class="cls-1" d="M115.09,1101.49a36.94,36.94,0,0,1-5.74-2.84,23,23,0,0,1-2.55-1.75c-.78-.65-1.53-1.33-2.24-2a29.76,29.76,0,0,1-3.69-4.44c-.26-.39-.51-.78-.75-1.18s-.44-.83-.64-1.25a23.83,23.83,0,0,1-1.06-2.53,22.36,22.36,0,0,1-1.22-10.26,23.7,23.7,0,0,1,3.67-9.76,29.19,29.19,0,0,1,7-7.48,33.5,33.5,0,0,1,8.43-4.73c.71-.27,1.42-.5,2.13-.71l2.15-.57a22.07,22.07,0,0,1,4.24-.63,17.46,17.46,0,0,1,2,0c.68.05,1.39.05,2.06.14a15.24,15.24,0,0,1,4,1"/><path class="cls-1" d="M134.12,1126.11c-.9-.16-1.78-.34-2.64-.57s-1.68-.56-2.48-.88a31.86,31.86,0,0,1-4.53-2.25,22.38,22.38,0,0,1-3.82-2.83,23.88,23.88,0,0,1-3-3.39,17.8,17.8,0,0,1-3.19-7.44,15.14,15.14,0,0,1,.75-7.7,17.71,17.71,0,0,1,4.2-6.45,22.38,22.38,0,0,1,6.33-4.41,23.51,23.51,0,0,1,3.63-1.32,30.1,30.1,0,0,1,3.84-.84,21.92,21.92,0,0,1,4-.19c.67,0,1.34.09,2,.18s1.36.14,2,.26"/><path class="cls-1" d="M143.57,1076.23a17.63,17.63,0,0,1-1.81-.41,15.88,15.88,0,0,1-1.69-.72,16.42,16.42,0,0,1-3-1.89,12.79,12.79,0,0,1-2.47-2.46,17.2,17.2,0,0,1-1.79-3,16.93,16.93,0,0,1-1.5-6.89,21.32,21.32,0,0,1,1.36-7.48,27.27,27.27,0,0,1,3.59-6.67,25.87,25.87,0,0,1,4.65-5,18,18,0,0,1,2.45-1.67,18.36,18.36,0,0,1,2.49-1.21,9.32,9.32,0,0,1,2.47-.55,7.09,7.09,0,0,1,1.22,0,7.28,7.28,0,0,1,1.23.09"/><path class="cls-1" d="M66.8,1071.83a29.46,29.46,0,0,1-7.11-10.13,25.7,25.7,0,0,1-2-11,23.35,23.35,0,0,1,.87-5.21,21.58,21.58,0,0,1,2.05-4.75,23.14,23.14,0,0,1,7.09-7.54,29.73,29.73,0,0,1,9.45-4.22,33.11,33.11,0,0,1,4.83-.86,31.5,31.5,0,0,1,4.72-.18c6.18.23,11.6,2,15.69,5.82"/><path class="cls-1" d="M74.79,1102a33.46,33.46,0,0,1-4.22-3.33c-.32-.3-.63-.59-.93-.9s-.57-.65-.84-1c-.55-.65-1.06-1.32-1.54-2a24.81,24.81,0,0,1-3.89-8.35,16.16,16.16,0,0,1,3.75-14.92A19.78,19.78,0,0,1,81,1065.66a24,24,0,0,1,7.78.89,17.75,17.75,0,0,1,1.86.64c.31.12.62.24.92.38l.94.38a21.71,21.71,0,0,1,3.6,2"/><path class="cls-1" d="M102.9,1059.69a17.47,17.47,0,0,1-2.81-2.36c-.21-.22-.41-.43-.6-.66s-.35-.49-.52-.74c-.33-.5-.63-1-.91-1.54a15.64,15.64,0,0,1-1.8-6.67,18.88,18.88,0,0,1,5.53-13.32A27,27,0,0,1,113.9,1027a16.3,16.3,0,0,1,5.69-.8,9.75,9.75,0,0,1,1.24.17,5.66,5.66,0,0,1,.59.15l.61.13a7.29,7.29,0,0,1,2.2,1"/><path class="cls-1" d="M33.86,1026A29.26,29.26,0,0,1,31.18,1014a23.09,23.09,0,0,1,.14-2.9,27.41,27.41,0,0,1,.49-2.76,25.75,25.75,0,0,1,1.74-5.1,23.11,23.11,0,0,1,6.39-8.06,23.86,23.86,0,0,1,9.38-4.47,28.86,28.86,0,0,1,10.31-.49,31.3,31.3,0,0,1,9.31,2.66,28.06,28.06,0,0,1,4,2.23c.62.42,1.22.86,1.78,1.32s1.14.89,1.66,1.37a18.65,18.65,0,0,1,1.46,1.49,15.55,15.55,0,0,1,1.33,1.59,19.48,19.48,0,0,1,2.1,3.56"/><path class="cls-1" d="M29.58,1056.83c-4-6.08-5.47-13-4.44-18.65a16.13,16.13,0,0,1,9.14-12.34,19.79,19.79,0,0,1,15.08-.1,25.49,25.49,0,0,1,12.25,9.71"/><path class="cls-1" d="M71.81,1028.64a14.85,14.85,0,0,1-1.5-13.66,18.87,18.87,0,0,1,10.17-10.2,27.09,27.09,0,0,1,14-2.24c4.15.52,7.5,2,9.31,4.73"/><path class="cls-1" d="M20,972.66c-.75-8.45,2.12-16.26,7-21.35a22.63,22.63,0,0,1,8.62-5.63A23.54,23.54,0,0,1,46,944.41a29.13,29.13,0,0,1,10,2.79,31.88,31.88,0,0,1,8,5.46c4.55,4.3,7.53,9.48,8,15.31"/><path class="cls-1" d="M5.23,999.11a24.87,24.87,0,0,1,2.48-18.18,17.53,17.53,0,0,1,5.51-5.8,15.66,15.66,0,0,1,7.28-2.51,19.65,19.65,0,0,1,14.22,4.81,24.09,24.09,0,0,1,8.07,13.19"/><path class="cls-1" d="M54.75,987.91a15.51,15.51,0,0,1,3.32-13.51A16.91,16.91,0,0,1,63.73,970a21,21,0,0,1,7.34-2,25,25,0,0,1,14,2.85c3.81,2.08,6.4,5,7.25,8.52"/><path class="cls-1" d="M23.9,918.07c2-8.25,7.13-14.75,13.42-18a22.64,22.64,0,0,1,10-2.63,23.63,23.63,0,0,1,10.15,2A29.18,29.18,0,0,1,66,905.24a32.53,32.53,0,0,1,5.86,7.7c2.95,5.51,4.15,11.38,2.8,17.08"/><path class="cls-1" d="M1.49,938.47a30.66,30.66,0,0,1,.93-5A29.14,29.14,0,0,1,4.21,929a22.06,22.06,0,0,1,5.4-7,17.19,17.19,0,0,1,7-3.76,15.83,15.83,0,0,1,7.71-.09,17.78,17.78,0,0,1,6.91,3.37,22.41,22.41,0,0,1,5.06,5.69,24.77,24.77,0,0,1,3,7.11,26.22,26.22,0,0,1,.52,7.95"/><path class="cls-1" d="M52,943.51a14.63,14.63,0,0,1,2.39-6.87,15.39,15.39,0,0,1,5-4.9,16.89,16.89,0,0,1,6.75-2.36,20.88,20.88,0,0,1,7.59.43A24.9,24.9,0,0,1,86.17,937a17.64,17.64,0,0,1,3.32,5,10.61,10.61,0,0,1,.73,2.64,9.2,9.2,0,0,1,.12,2.72"/><path class="cls-1" d="M44.77,867.5a29.34,29.34,0,0,1,1.75-2.59c.64-.81,1.32-1.58,2-2.31A25.68,25.68,0,0,1,53,858.77,27.79,27.79,0,0,1,58,856.08a27,27,0,0,1,5.21-1.46,22.4,22.4,0,0,1,10.28.64,23.63,23.63,0,0,1,9,5.12,29,29,0,0,1,6.33,8.21,32.82,32.82,0,0,1,3.13,9.16,25.61,25.61,0,0,1,.45,4.56,23.09,23.09,0,0,1-.26,4.42,25.13,25.13,0,0,1-1,4.19,20.16,20.16,0,0,1-.85,2,18.85,18.85,0,0,1-1,1.93"/><path class="cls-1" d="M17.07,879.81a30.92,30.92,0,0,1,2.45-4.43,28.8,28.8,0,0,1,3.1-3.69A22.07,22.07,0,0,1,30,866.75a19,19,0,0,1,3.92-1.15,17,17,0,0,1,4-.2,15.79,15.79,0,0,1,7.34,2.34,17.78,17.78,0,0,1,5.5,5.38,19.56,19.56,0,0,1,1.8,3.34,23.34,23.34,0,0,1,1.22,3.65,24.68,24.68,0,0,1,.56,7.68,21.53,21.53,0,0,1-.69,3.87,21.23,21.23,0,0,1-1.31,3.84"/><path class="cls-1" d="M63.44,900.5a17.55,17.55,0,0,1,1.88-3.21,16.69,16.69,0,0,1,2.55-2.56,15.34,15.34,0,0,1,6.32-3.07,16.53,16.53,0,0,1,3.51-.44,18.67,18.67,0,0,1,3.64.33,20.83,20.83,0,0,1,7.07,2.8,25.1,25.1,0,0,1,5.78,4.92,24.42,24.42,0,0,1,2.1,2.81A23.24,23.24,0,0,1,97.92,905a17.46,17.46,0,0,1,1.57,5.81,10.38,10.38,0,0,1-.13,2.74,9.25,9.25,0,0,1-.75,2.62"/><path class="cls-1" d="M80.54,826.07a29.1,29.1,0,0,1,10.57-5.68,24.48,24.48,0,0,1,10.88-.67,23.61,23.61,0,0,1,16.5,11.44,29.25,29.25,0,0,1,3.61,19.47,29.79,29.79,0,0,1-2.74,8.63A21.27,21.27,0,0,1,114,866"/><path class="cls-1" d="M50.36,829a29.88,29.88,0,0,1,3.74-3.42,23.87,23.87,0,0,1,4.1-2.53,25.36,25.36,0,0,1,4.24-1.67,22.62,22.62,0,0,1,4.28-.71,16.46,16.46,0,0,1,14.12,5.75A19.8,19.8,0,0,1,85,840.86a22,22,0,0,1-.66,3.77,22.82,22.82,0,0,1-1.23,3.69,25.23,25.23,0,0,1-1.88,3.46A20.42,20.42,0,0,1,78.77,855"/><path class="cls-1" d="M87.82,863.28a17.88,17.88,0,0,1,2.81-2.44,14.77,14.77,0,0,1,3.22-1.63,16.51,16.51,0,0,1,3.42-.87,16.86,16.86,0,0,1,3.55,0,18.9,18.9,0,0,1,12.64,7,25.2,25.2,0,0,1,5.65,13.14,18,18,0,0,1,.07,3.1,14.91,14.91,0,0,1-.41,2.9,12.94,12.94,0,0,1-1,2.56,9,9,0,0,1-1.54,2.23"/><path class="cls-1" d="M125.7,797.85c.92-.43,1.85-.82,2.77-1.16s1.89-.57,2.83-.79a27.33,27.33,0,0,1,5.63-.73,25.44,25.44,0,0,1,10.52,2,23.66,23.66,0,0,1,13.44,14.92,29.25,29.25,0,0,1-1,19.78,26.68,26.68,0,0,1-4.89,7.84,24.35,24.35,0,0,1-3.34,3.08,20.13,20.13,0,0,1-1.91,1.24,19,19,0,0,1-2,1.11"/><path class="cls-1" d="M97,791.72a24.75,24.75,0,0,1,8.66-3.15,21.48,21.48,0,0,1,8.41.28,17.09,17.09,0,0,1,11.8,9.42,19.51,19.51,0,0,1,.4,14.92,22.52,22.52,0,0,1-9.75,11.72"/><path class="cls-1" d="M122.77,835.48a16.6,16.6,0,0,1,7-2.23,16.87,16.87,0,0,1,7,1,19,19,0,0,1,10.52,10,22.89,22.89,0,0,1,1.68,14.31,17.17,17.17,0,0,1-2.41,5.89,13.3,13.3,0,0,1-4.34,4.2"/><path class="cls-1" d="M175.55,781.28a26.76,26.76,0,0,1,21.32,4.3,24.21,24.21,0,0,1,3.82,3.45,23.4,23.4,0,0,1,2.94,4.19,24.63,24.63,0,0,1,2.91,9.95,28.22,28.22,0,0,1-1.16,10.28,28.81,28.81,0,0,1-1.83,4.6,28.21,28.21,0,0,1-2.48,4.16,24.66,24.66,0,0,1-14.9,10.13"/><path class="cls-1" d="M149,768.74a25.21,25.21,0,0,1,9.16-1.09,22.19,22.19,0,0,1,8.13,2.2,17.19,17.19,0,0,1,9.32,11.89,19.54,19.54,0,0,1-3,14.61,22.56,22.56,0,0,1-12.18,9.17"/><path class="cls-1" d="M164.06,817.24a16.5,16.5,0,0,1,7.35-.56,17,17,0,0,1,6.64,2.58A19.06,19.06,0,0,1,186,831.45a22.84,22.84,0,0,1-1.66,14.3,17,17,0,0,1-3.69,5.19,13.09,13.09,0,0,1-5.19,3.09"/><path class="cls-1" d="M227.86,776.58a27,27,0,0,1,5.87.77,24.62,24.62,0,0,1,5.36,1.86,28.36,28.36,0,0,1,4.69,2.8,27.19,27.19,0,0,1,3.85,3.64,22.94,22.94,0,0,1,4.82,9A24.38,24.38,0,0,1,253,805a28.16,28.16,0,0,1-3.48,9.74,30.9,30.9,0,0,1-6.21,7.55,26.13,26.13,0,0,1-3.78,2.77,23.54,23.54,0,0,1-4.1,2.07,27.18,27.18,0,0,1-4.36,1.25,24,24,0,0,1-4.58.34"/><path class="cls-1" d="M204.93,758.29a26.16,26.16,0,0,1,9.16,1,23,23,0,0,1,7.41,4,17.19,17.19,0,0,1,6.35,13.71,19.46,19.46,0,0,1-6.3,13.52,22.62,22.62,0,0,1-14,6.14"/><path class="cls-1" d="M208.43,809a17.1,17.1,0,0,1,7.28,1.13,17.45,17.45,0,0,1,5.88,4,19.08,19.08,0,0,1,4.93,13.68,22.81,22.81,0,0,1-4.88,13.55,16.58,16.58,0,0,1-4.79,4.2,12.71,12.71,0,0,1-5.76,1.82"/><path class="cls-1" d="M279.86,784a29.36,29.36,0,0,1,5.54,2.1,24.84,24.84,0,0,1,4.79,3,24.53,24.53,0,0,1,6.83,8.23,23,23,0,0,1,2.63,9.86,24.25,24.25,0,0,1-1.83,10.19,28,28,0,0,1-5.63,8.69,30.57,30.57,0,0,1-7.77,5.92,26.92,26.92,0,0,1-4.31,1.83,26.21,26.21,0,0,1-4.47,1.08,27.39,27.39,0,0,1-4.53.2,22.14,22.14,0,0,1-4.53-.72"/><path class="cls-1" d="M261.73,760.93a25.76,25.76,0,0,1,8.67,3.14,22.17,22.17,0,0,1,6.3,5.58,17.17,17.17,0,0,1,3,14.79,19.44,19.44,0,0,1-9.24,11.73,22.32,22.32,0,0,1-15,2.77"/><path class="cls-1" d="M253.53,811a16.45,16.45,0,0,1,11.61,8.05,19.13,19.13,0,0,1,1.67,14.46A22.78,22.78,0,0,1,259,845.61a16.68,16.68,0,0,1-5.63,3,12.63,12.63,0,0,1-6,.43"/><path class="cls-1" d="M328.16,802.73A26.08,26.08,0,0,1,305,849.45"/><path class="cls-1" d="M316.42,776.54a26.12,26.12,0,0,1,7.72,5,22.41,22.41,0,0,1,4.83,6.87,19.32,19.32,0,0,1-12.1,24.4,21.42,21.42,0,0,1-7.55,1,21.64,21.64,0,0,1-7.68-1.72"/><path class="cls-1" d="M296.94,823.43a17.26,17.26,0,0,1,6,4.29,17.6,17.6,0,0,1,3.46,6.22,19.31,19.31,0,0,1-12.1,24.39,16.86,16.86,0,0,1-6.18,1.63,12.41,12.41,0,0,1-6-1"/><path class="cls-1" d="M370,823.47a26.08,26.08,0,0,1-23.18,46.72"/><path class="cls-1" d="M361.13,798.11A19.26,19.26,0,0,1,344,832.61"/><path class="cls-1" d="M338.56,843.6a19.25,19.25,0,0,1-17.12,34.49"/><path class="cls-1" d="M411.76,844.22a26.07,26.07,0,0,1-23.18,46.71"/><path class="cls-1" d="M402.92,818.86a19.25,19.25,0,0,1-17.11,34.49"/><path class="cls-1" d="M380.35,864.34a19.26,19.26,0,0,1-17.12,34.5"/><path class="cls-1" d="M453.56,865a26.07,26.07,0,0,1-23.18,46.71"/><path class="cls-1" d="M444.72,839.6a19.25,19.25,0,0,1-17.12,34.49"/><path class="cls-1" d="M422.15,885.08A19.26,19.26,0,0,1,405,919.58"/><path class="cls-1" d="M495.36,885.7a26.08,26.08,0,0,1-23.19,46.71"/><path class="cls-1" d="M486.52,860.34a19.26,19.26,0,0,1-17.12,34.5"/><path class="cls-1" d="M464,905.82a19.26,19.26,0,0,1-17.12,34.5"/><path class="cls-1" d="M537.15,906.44a25.9,25.9,0,0,1,8.15,6.33c.28.32.54.65.8,1l.38.5a1.81,1.81,0,0,1,.16.41c.16.52.31,1.09.46,1.69s.3,1.18.47,1.79.38,1.25.56,1.92c.09.35.17.69.26,1s.27.74.39,1.12c.25.75.48,1.52.67,2.31a32.47,32.47,0,0,1,.84,4.91,29.41,29.41,0,0,1-.77,10.3,23.23,23.23,0,0,1-4.71,9.24,22.09,22.09,0,0,1-3.74,3.48,24.87,24.87,0,0,1-2.19,1.42c-.39.21-.77.42-1.17.62s-.91.36-1.39.52a28.79,28.79,0,0,1-3,.82c-.52.11-1.08.21-1.63.3a11.14,11.14,0,0,1-1.63,0c-1.1,0-2.24-.1-3.4-.23-.28,0-.62-.09-.84-.09h-.63l-1.27,0a25.94,25.94,0,0,1-10-2.66"/><path class="cls-1" d="M528.32,881.08a19.26,19.26,0,0,1-17.12,34.5"/><path class="cls-1" d="M505.75,926.57a19.25,19.25,0,0,1-17.12,34.49"/><path class="cls-1" d="M572.42,917.39a16.26,16.26,0,0,1,4.14.88l2,.73a20.6,20.6,0,0,1,1.91.89,22.83,22.83,0,0,1,3.64,2.46,40,40,0,0,1,3.35,3,32.47,32.47,0,0,1,5.51,8,29.34,29.34,0,0,1,2.93,9.9,23.22,23.22,0,0,1-1.13,10.31,22.77,22.77,0,0,1-5.62,8.65,21.35,21.35,0,0,1-4.35,3.35,29.32,29.32,0,0,1-5.2,2.36c-.93.31-1.89.59-2.87.83a16.9,16.9,0,0,1-3,.51,35,35,0,0,1-6.31,0"/><path class="cls-1" d="M561.9,896.56a9.47,9.47,0,0,1,4.47,2.58,15.17,15.17,0,0,1,3.43,4.7,22.8,22.8,0,0,1,1.26,3.1,27.3,27.3,0,0,1,.92,3.37,25.64,25.64,0,0,1,.39,7.54,21.24,21.24,0,0,1-2,7.36,17.3,17.3,0,0,1-1.91,3.1A16.49,16.49,0,0,1,566,930.8a16.73,16.73,0,0,1-6.25,3.2,16,16,0,0,1-7.21-.09"/><path class="cls-1" d="M549.54,945.81a22.93,22.93,0,0,1,7.35,3.21,22.26,22.26,0,0,1,5.8,5.1,21.42,21.42,0,0,1,2.18,3.22,21.91,21.91,0,0,1,1.61,3.44,17.51,17.51,0,0,1,1,7.61,15.54,15.54,0,0,1-2.61,7.29,16.23,16.23,0,0,1-2.6,3,19.33,19.33,0,0,1-3.37,2.37,24.85,24.85,0,0,1-8.62,2.8,29.69,29.69,0,0,1-10.09-.72"/><path class="cls-1" d="M609.37,914.26a16.67,16.67,0,0,1,4.2-.62,22.74,22.74,0,0,1,4.2.12,23.34,23.34,0,0,1,4.28,1,32,32,0,0,1,4.2,1.64,32.48,32.48,0,0,1,8,5.54,29,29,0,0,1,6.24,8.19,23.76,23.76,0,0,1,2.6,10.08,22.51,22.51,0,0,1-2.21,10A24.67,24.67,0,0,1,638,955a30.11,30.11,0,0,1-4,4,29.41,29.41,0,0,1-5,3.36,35.87,35.87,0,0,1-5.91,2.22"/><path class="cls-1" d="M592.14,898.51a8.2,8.2,0,0,1,2.57.06,16.66,16.66,0,0,1,2.53.76,15.52,15.52,0,0,1,4.89,3.2,26.92,26.92,0,0,1,2.28,2.45,24.44,24.44,0,0,1,2,2.81,25.71,25.71,0,0,1,3,6.92,21.33,21.33,0,0,1,.72,7.59,19.74,19.74,0,0,1-.69,3.6,16,16,0,0,1-1.41,3.2,16.73,16.73,0,0,1-4.71,5.18,12.11,12.11,0,0,1-3.19,1.61,17,17,0,0,1-3.59.87"/><path class="cls-1" d="M598,949a20.75,20.75,0,0,1,4.08-.15,35.74,35.74,0,0,1,3.93.54,22.09,22.09,0,0,1,7.23,2.73,23.56,23.56,0,0,1,3.18,2.23,20,20,0,0,1,2.72,2.64,17.66,17.66,0,0,1,3.62,6.77,15.85,15.85,0,0,1,.14,7.74,17.44,17.44,0,0,1-1.37,3.77,18.23,18.23,0,0,1-2.3,3.41,25,25,0,0,1-7.06,5.66,21.77,21.77,0,0,1-4.59,1.83,31.78,31.78,0,0,1-5.1,1.07"/><path class="cls-1" d="M642.82,898.26a16.82,16.82,0,0,1,3.71-2,19.83,19.83,0,0,1,4-1.38,22.8,22.8,0,0,1,4.36-.55,29.59,29.59,0,0,1,4.51,0,32.5,32.5,0,0,1,9.43,2.34,29.11,29.11,0,0,1,8.74,5.46,23.84,23.84,0,0,1,6,8.5A22.77,22.77,0,0,1,685,920.8a25,25,0,0,1-1,5.41,28.9,28.9,0,0,1-2.36,5.19,30.72,30.72,0,0,1-3.49,4.93,35.55,35.55,0,0,1-4.75,4.16"/><path class="cls-1" d="M621.15,889.62a8.28,8.28,0,0,1,2.42-.84,11.4,11.4,0,0,1,1.31-.14c.45,0,.87-.07,1.32-.06a15.5,15.5,0,0,1,5.71,1.29,27.66,27.66,0,0,1,5.89,3.37,25.91,25.91,0,0,1,5.3,5.4,21.42,21.42,0,0,1,3.35,6.84,16,16,0,0,1-2.13,13.61,10.8,10.8,0,0,1-1.09,1.43,15.2,15.2,0,0,1-1.3,1.23,17.85,17.85,0,0,1-3.06,2.07"/><path class="cls-1" d="M644.51,934.71a20.88,20.88,0,0,1,3.77-1.57c.64-.19,1.28-.36,1.94-.49s1.27-.31,1.91-.41a22.41,22.41,0,0,1,7.75,0,24,24,0,0,1,7.23,2.46,17.63,17.63,0,0,1,5.78,5,15.66,15.66,0,0,1,2.87,7.19,16.87,16.87,0,0,1-.88,8,24.73,24.73,0,0,1-4.62,7.77,18.93,18.93,0,0,1-1.69,1.78c-.62.55-1.26,1.08-1.94,1.59a32.56,32.56,0,0,1-4.4,2.79"/><path class="cls-1" d="M668.69,871.36a16.34,16.34,0,0,1,2.69-3.27,18.21,18.21,0,0,1,1.64-1.36c.58-.42,1.09-.87,1.68-1.26a25.9,25.9,0,0,1,8.17-3.51,31.21,31.21,0,0,1,19.69,1,22.65,22.65,0,0,1,13.57,14.95,26.94,26.94,0,0,1,.46,11.12,19.84,19.84,0,0,1-.62,2.93c-.3.95-.64,1.9-1,2.85a36,36,0,0,1-2.93,5.59"/><path class="cls-1" d="M645.16,871a9.55,9.55,0,0,1,4.52-2.86,15,15,0,0,1,5.77-.88,26.33,26.33,0,0,1,13.62,4.36,21.79,21.79,0,0,1,5.54,5.27,16.81,16.81,0,0,1,2.7,13.52,17.11,17.11,0,0,1-3.51,6.34"/><path class="cls-1" d="M682.92,905a21.43,21.43,0,0,1,6.29-4.94,21.86,21.86,0,0,1,7.19-2.72,22.38,22.38,0,0,1,7.7-.14,17.51,17.51,0,0,1,7.16,2.73,15.9,15.9,0,0,1,5.2,5.76,17.53,17.53,0,0,1,1.9,7.75,24.83,24.83,0,0,1-1.52,8.89,30.32,30.32,0,0,1-5.29,8.41"/><path class="cls-1" d="M683.31,837.51a16.06,16.06,0,0,1,1.29-4,32.23,32.23,0,0,1,2.15-3.62,26.21,26.21,0,0,1,6.31-6.25,31.29,31.29,0,0,1,18.71-6.26,22.61,22.61,0,0,1,18.06,9,26.77,26.77,0,0,1,4.51,10.2,23.83,23.83,0,0,1,.54,6,37.3,37.3,0,0,1-.67,6.32"/><path class="cls-1" d="M661.4,845.17a8.34,8.34,0,0,1,3-4.06,13.7,13.7,0,0,1,1.15-.79c.4-.25.77-.5,1.19-.73a16.82,16.82,0,0,1,2.75-1.22,27.05,27.05,0,0,1,14.28-.76,18.68,18.68,0,0,1,12,7.89,16.7,16.7,0,0,1,1.59,3.16,12.77,12.77,0,0,1,.54,1.69c.11.57.19,1.14.25,1.73a17.17,17.17,0,0,1-.91,7.17"/><path class="cls-1" d="M708.66,863.73a21.36,21.36,0,0,1,4-6.93c.43-.5.89-1,1.36-1.44s.9-.92,1.38-1.35a22.45,22.45,0,0,1,3.06-2.33,20.06,20.06,0,0,1,14.83-3c5.24,1.16,9.28,4.79,11.45,10.12a23.57,23.57,0,0,1,1.28,4.27,21.77,21.77,0,0,1,.34,2.31c.05.78.07,1.57.05,2.38a32,32,0,0,1-1.94,10"/><path class="cls-1" d="M684.57,800.56a21.57,21.57,0,0,1,.49-8.43,29.19,29.19,0,0,1,3.66-8.13,31.39,31.39,0,0,1,15.36-12.46,22.52,22.52,0,0,1,20,2.05,24.71,24.71,0,0,1,7.81,7.88,28.86,28.86,0,0,1,4.25,11.47"/><path class="cls-1" d="M666.92,815.81a8.74,8.74,0,0,1,1.38-4.95,20.12,20.12,0,0,1,1.58-2.31,18.3,18.3,0,0,1,2.15-2.17,26.18,26.18,0,0,1,5.79-3.68,25.31,25.31,0,0,1,7.21-2.21,21.45,21.45,0,0,1,7.64.19,16.66,16.66,0,0,1,9,5.27,12.71,12.71,0,0,1,2,2.91,17.06,17.06,0,0,1,1.71,7"/><path class="cls-1" d="M717.7,815.91A21.54,21.54,0,0,1,719,808a34.55,34.55,0,0,1,1.5-3.58,22.71,22.71,0,0,1,2-3.28,22.48,22.48,0,0,1,5.6-5.28,17.45,17.45,0,0,1,7.13-2.79,15.93,15.93,0,0,1,7.72.77,17.44,17.44,0,0,1,6.64,4.49,23.26,23.26,0,0,1,2.7,3.49,20.53,20.53,0,0,1,2.1,4.19,31.42,31.42,0,0,1,1.79,10"/><path class="cls-1" d="M672.68,765.16a16.44,16.44,0,0,1-1.57-4,18.49,18.49,0,0,1-.88-4.14,24.09,24.09,0,0,1,0-4.41,26.1,26.1,0,0,1,.62-4.47,33.7,33.7,0,0,1,3.55-9A29,29,0,0,1,681,731.2a23.89,23.89,0,0,1,9.22-4.84,22.06,22.06,0,0,1,10.29-.15,23.21,23.21,0,0,1,10.06,4.7A31.87,31.87,0,0,1,715,735a35.15,35.15,0,0,1,3.51,5.21"/><path class="cls-1" d="M661.47,785.73a9.85,9.85,0,0,1-.44-5.21,15.42,15.42,0,0,1,2-5.55,27.29,27.29,0,0,1,4.08-5.45,25.56,25.56,0,0,1,6-4.58,21.49,21.49,0,0,1,7.21-2.45,19.59,19.59,0,0,1,3.66-.16,15.31,15.31,0,0,1,3.46.63,16.64,16.64,0,0,1,6.14,3.38,15.76,15.76,0,0,1,4,6"/><path class="cls-1" d="M709.08,768.09a23.34,23.34,0,0,1-1.5-7.86,22.09,22.09,0,0,1,1-7.66A26.15,26.15,0,0,1,710,749a19.85,19.85,0,0,1,1.95-3.25,17.77,17.77,0,0,1,5.75-5.09,15.67,15.67,0,0,1,7.49-1.93,16.71,16.71,0,0,1,7.82,1.86,24.6,24.6,0,0,1,7.13,5.5,28.44,28.44,0,0,1,5.08,8.66"/><path class="cls-1" d="M649.4,736.19a22.15,22.15,0,0,1-5.07-6.67,30.27,30.27,0,0,1-2.52-8.48,32.63,32.63,0,0,1-.28-4.79,36.66,36.66,0,0,1,.36-4.88,29.41,29.41,0,0,1,3.27-9.78,23.53,23.53,0,0,1,6.86-7.81,20.49,20.49,0,0,1,4.53-2.51,22.84,22.84,0,0,1,5.06-1.34,24.62,24.62,0,0,1,11.14.84,28.29,28.29,0,0,1,10.76,6"/><path class="cls-1" d="M645.92,759.25a11.12,11.12,0,0,1-2.19-4.67,16.16,16.16,0,0,1,0-5.89,25.86,25.86,0,0,1,6-12.86,19.27,19.27,0,0,1,12.74-6.93A16.26,16.26,0,0,1,669.3,730a12.54,12.54,0,0,1,3.17,1.69,17.33,17.33,0,0,1,2.69,2.53"/><path class="cls-1" d="M684.48,726.22a28.17,28.17,0,0,1-4.16-6.84,23,23,0,0,1-1.71-7.59,19.46,19.46,0,0,1,4.3-14.37,16.51,16.51,0,0,1,14.4-5.42,24.64,24.64,0,0,1,8.58,2.77A23,23,0,0,1,710,697.5a32.83,32.83,0,0,1,3.7,3.67"/><path class="cls-1" d="M617.6,717.69a22.51,22.51,0,0,1-7.15-4.35,31.48,31.48,0,0,1-5.47-7,34.5,34.5,0,0,1-3.44-9.09,28.76,28.76,0,0,1-.48-10.27,23.91,23.91,0,0,1,3.57-9.79,21.76,21.76,0,0,1,7.52-7,24,24,0,0,1,10.65-3.28A28.12,28.12,0,0,1,635,668.53"/><path class="cls-1" d="M622.58,740.38a7.84,7.84,0,0,1-2-1.56,9,9,0,0,1-1.66-2,16.69,16.69,0,0,1-2.08-5.48,25.93,25.93,0,0,1,.9-14.14,19.23,19.23,0,0,1,9.32-11.1,15.81,15.81,0,0,1,6.77-1.48,16.93,16.93,0,0,1,3.59.39,17.72,17.72,0,0,1,3.4,1.41"/><path class="cls-1" d="M646.65,695.67a21,21,0,0,1-3.39-2.29,21.64,21.64,0,0,1-3-2.58,24,24,0,0,1-4.36-6.47,19.38,19.38,0,0,1-1.23-15c1.75-5,5.86-8.66,11.45-10.29a23.93,23.93,0,0,1,9.05-.49,31.32,31.32,0,0,1,4.91,1,33.27,33.27,0,0,1,4.8,2.14"/><path class="cls-1" d="M580.7,711.8a25.43,25.43,0,0,1-26.26-25.28,26.63,26.63,0,0,1,25.68-26.86"/><path class="cls-1" d="M593.91,731.31a8.19,8.19,0,0,1-2.51-.71,8.46,8.46,0,0,1-1.18-.64,8.61,8.61,0,0,1-1-.68,15.4,15.4,0,0,1-3.66-4.3,28.27,28.27,0,0,1-1.54-3l-.17-.4c-.07-.13-.16-.25-.24-.39s-.32-.52-.47-.79a16.06,16.06,0,0,1-.83-1.66,19,19,0,0,1-1.59-7.44,19.62,19.62,0,0,1,1.42-7.55,23.77,23.77,0,0,1,1.69-3.3,15.4,15.4,0,0,1,2.07-2.74,16,16,0,0,1,5.72-3.87,14.59,14.59,0,0,1,1.69-.57c.59-.11,1.18-.2,1.78-.26a17.66,17.66,0,0,1,3.7.06"/><path class="cls-1" d="M600.32,680.94a21.67,21.67,0,0,1-4-.87c-.64-.21-1.26-.44-1.88-.7s-1.23-.47-1.82-.75a23,23,0,0,1-6.47-4.42,25.25,25.25,0,0,1-2.61-3,16.34,16.34,0,0,1-1.84-3.24,19,19,0,0,1-1.59-7.45,19.42,19.42,0,0,1,1.42-7.54,18.83,18.83,0,0,1,.79-1.71c.14-.27.29-.55.45-.82a3.18,3.18,0,0,1,.58-.77,18.54,18.54,0,0,1,3.14-2.74,25.75,25.75,0,0,1,8.53-3.76c.81-.2,1.66-.38,2.5-.51s1.63-.16,2.47-.19a31.06,31.06,0,0,1,5.16.22"/><path class="cls-1" d="M533.67,713.24a26.08,26.08,0,0,1-1.59-52.13"/><path class="cls-1" d="M553.42,731.43a19.25,19.25,0,0,1-1.18-38.49"/><path class="cls-1" d="M551.87,680.68a19.25,19.25,0,0,1-1.18-38.49"/><path class="cls-1" d="M487.42,714.59a26.56,26.56,0,0,1-26.27-26.28,25.51,25.51,0,0,1,25.69-25.87"/><path class="cls-1" d="M506.81,732.86a18.79,18.79,0,0,1-19.4-18.74,19.69,19.69,0,0,1,19-19.77"/><path class="cls-1" d="M506.24,682.08a18.76,18.76,0,0,1-19.39-18.73,19.66,19.66,0,0,1,19-19.77"/><path class="cls-1" d="M440.6,714.21a26.35,26.35,0,0,1-26.11-26.28,25.69,25.69,0,0,1,25.85-25.86"/><path class="cls-1" d="M460,733.16a19.58,19.58,0,0,1-19.4-19.41,18.94,18.94,0,0,1,19.11-19.1"/><path class="cls-1" d="M459.61,682.38A19.5,19.5,0,0,1,440.35,663a18.87,18.87,0,0,1,19-19.1"/><path class="cls-1" d="M393.78,713.84a26.16,26.16,0,0,1-25.95-26.28,25.88,25.88,0,0,1,26-25.87"/><path class="cls-1" d="M413.05,732.78a19.42,19.42,0,0,1-19.27-19.41A19.07,19.07,0,0,1,413,694.27"/><path class="cls-1" d="M413,682a19.38,19.38,0,0,1-19.15-19.41,19,19,0,0,1,19.1-19.1"/><path class="cls-1" d="M347,713.46a26.22,26.22,0,0,1-2.67-.15,26.68,26.68,0,0,1-2.75-.46,32.11,32.11,0,0,1-5.68-1.76,28,28,0,0,1-5-2.65,25.7,25.7,0,0,1-4.08-3.67,22.7,22.7,0,0,1-5-9,22.27,22.27,0,0,1-.81-5.08,25.61,25.61,0,0,1,.34-5.29,27.91,27.91,0,0,1,1.37-5.08,33,33,0,0,1,2.18-4.62,32.35,32.35,0,0,1,6-7.62,27.77,27.77,0,0,1,3.55-2.78,23,23,0,0,1,3.83-2.24,18,18,0,0,1,4-1.33c.62-.12,1.54-.26,2.41-.34s1.75-.12,2.64-.12"/><path class="cls-1" d="M366.11,732.41a19.26,19.26,0,0,1,.19-38.51"/><path class="cls-1" d="M366.36,681.63a19.26,19.26,0,0,1,.19-38.51"/><path class="cls-1" d="M292.89,705a35.42,35.42,0,0,1-5.74-2.66,20.65,20.65,0,0,1-2.55-1.66c-.79-.63-1.55-1.29-2.26-2a30.21,30.21,0,0,1-3.75-4.33,26.3,26.3,0,0,1-1.46-2.32,25.33,25.33,0,0,1-1.12-2.51,22.42,22.42,0,0,1,1.8-20,31.8,31.8,0,0,1,15.12-12.74c.71-.28,1.41-.52,2.13-.75s1.45-.48,2.17-.67a22.62,22.62,0,0,1,4.28-.71,20.63,20.63,0,0,1,2.08,0c.68.05,1.4,0,2.09.1a16.07,16.07,0,0,1,4.08.92"/><path class="cls-1" d="M311.85,729.3a30.48,30.48,0,0,1-9.48-3.48,25.13,25.13,0,0,1-6.72-6.14A16.12,16.12,0,0,1,293,704.59c1.74-5,5.63-8.65,10.27-11.05a22.44,22.44,0,0,1,7.38-2.22,22.08,22.08,0,0,1,8,.08"/><path class="cls-1" d="M320.9,679.33a16.56,16.56,0,0,1-6.62-2.87,16.9,16.9,0,0,1-4.36-5.51c-2.09-4.13-2.18-9.39-.45-14.41a26.75,26.75,0,0,1,8.11-11.72,14.87,14.87,0,0,1,5-2.85,9.14,9.14,0,0,1,5.16-.53"/><path class="cls-1" d="M244.22,677.41a35.33,35.33,0,0,1-4.38-4.55,24,24,0,0,1-3.13-5.14,24.39,24.39,0,0,1-2.54-10.81,22.74,22.74,0,0,1,2.3-10,23.59,23.59,0,0,1,6.62-8,29.42,29.42,0,0,1,9.14-4.8,32.25,32.25,0,0,1,9.55-1.61,30.11,30.11,0,0,1,8.79,1.16,21.73,21.73,0,0,1,7.34,4"/><path class="cls-1" d="M253.12,707a31.85,31.85,0,0,1-7.64-6.76,24.81,24.81,0,0,1-4-8.17,16.11,16.11,0,0,1,3.08-15c3.46-4.06,8.38-6,13.58-6.54a22.89,22.89,0,0,1,7.69.62,21.6,21.6,0,0,1,7.45,3"/><path class="cls-1" d="M279.64,663.69a17,17,0,0,1-5.09-5.09,16.42,16.42,0,0,1-2.05-6.72c-.44-4.6,1.39-9.55,4.83-13.58a26.84,26.84,0,0,1,11.82-8,15.26,15.26,0,0,1,5.71-.84,8.62,8.62,0,0,1,4.9,1.35"/><path class="cls-1" d="M208.92,634.4a26.73,26.73,0,0,1-3.62-11.62,25.54,25.54,0,0,1,.06-5.67,26.65,26.65,0,0,1,1.35-5.31,23.46,23.46,0,0,1,2.32-4.68,22.1,22.1,0,0,1,1.51-2,24.63,24.63,0,0,1,1.8-1.88,23.82,23.82,0,0,1,9-5.22,29.07,29.07,0,0,1,10.21-1.34c.83,0,1.64.11,2.45.21s1.65.22,2.45.37a30.37,30.37,0,0,1,4.62,1.23,26.25,26.25,0,0,1,4.13,1.84,28.14,28.14,0,0,1,3.72,2.34,24.36,24.36,0,0,1,5.54,6.36"/><path class="cls-1" d="M206.61,665a32.88,32.88,0,0,1-2.79-4.38,21.4,21.4,0,0,1-1.85-4.56,24.83,24.83,0,0,1-.88-9,17.06,17.06,0,0,1,2.61-7.63,15.82,15.82,0,0,1,5.63-5.3,17.68,17.68,0,0,1,7.38-2.15,23.38,23.38,0,0,1,7.58.81,22.44,22.44,0,0,1,7,3.26,37.23,37.23,0,0,1,3.12,2.45,21.31,21.31,0,0,1,2.74,3"/><path class="cls-1" d="M246.88,634.08A17.48,17.48,0,0,1,245,630.9a11.81,11.81,0,0,1-1.06-3.42,16.76,16.76,0,0,1,.4-7,16.5,16.5,0,0,1,3.41-6.27,21.37,21.37,0,0,1,5.92-4.79,25.29,25.29,0,0,1,7.09-2.66,26.87,26.87,0,0,1,6.77-.55,15.44,15.44,0,0,1,5.74,1.29,17.54,17.54,0,0,1,2.32,1.31,8.31,8.31,0,0,1,1.84,1.81"/><path class="cls-1" d="M190.77,582a27.25,27.25,0,0,1,5.75-22,21.79,21.79,0,0,1,3.79-3.59,23,23,0,0,1,4.54-2.53,23.58,23.58,0,0,1,10.23-1.75,29.57,29.57,0,0,1,10.06,2.33,31.59,31.59,0,0,1,4.33,2.25,35.57,35.57,0,0,1,3.92,2.74c4.77,4,8,8.83,8.89,14.46"/><path class="cls-1" d="M178.06,609.9a32.31,32.31,0,0,1-1.15-5,25.59,25.59,0,0,1-.09-4.94,23.86,23.86,0,0,1,2.2-8.69c2.63-5.15,7-8.5,12.21-9.32a19.41,19.41,0,0,1,14.48,3.92,23.31,23.31,0,0,1,5.53,5.46,25.81,25.81,0,0,1,2,3.39,20.77,20.77,0,0,1,1.58,3.75"/><path class="cls-1" d="M226.53,594.78a17.85,17.85,0,0,1-.72-3.62,14,14,0,0,1,.26-3.6,16,16,0,0,1,2.71-6.4A19.19,19.19,0,0,1,241.39,574a25.52,25.52,0,0,1,14.08,1.77,16.11,16.11,0,0,1,5,3.17,11.93,11.93,0,0,1,1.66,2.05,8.82,8.82,0,0,1,1.16,2.34"/><path class="cls-1" d="M192.16,526.2a24.31,24.31,0,0,1,2-6,33.19,33.19,0,0,1,3-5.23c.29-.4.57-.79.87-1.16s.65-.73,1-1.09c.67-.7,1.36-1.35,2.07-2a26.09,26.09,0,0,1,4.48-3.14,21.33,21.33,0,0,1,10-2.67,23.32,23.32,0,0,1,10.16,2.1,29.44,29.44,0,0,1,8.53,5.83,35.94,35.94,0,0,1,5.86,7.63,27.22,27.22,0,0,1,1.93,4.11,19.7,19.7,0,0,1,.66,2.06c.16.68.33,1.37.5,2.08a17.53,17.53,0,0,1,.46,4.17,31,31,0,0,1-.45,4.14"/><path class="cls-1" d="M170.35,548a26.11,26.11,0,0,1,2.39-9.89,21.81,21.81,0,0,1,5.18-7.44c4.27-3.93,9.5-5.54,14.7-4.41a19.58,19.58,0,0,1,12.16,8.87,27,27,0,0,1,3.2,7.08,28.27,28.27,0,0,1,.82,8"/><path class="cls-1" d="M221.05,550.92a13.86,13.86,0,0,1,2.12-6.9,14.3,14.3,0,0,1,4.84-5,19,19,0,0,1,14.27-2.16,26.29,26.29,0,0,1,12.59,6.62,18.68,18.68,0,0,1,3.55,4.65,10.85,10.85,0,0,1,1.07,5"/><path class="cls-1" d="M213.74,474.63q.87-1.36,1.83-2.61a24.08,24.08,0,0,1,2.13-2.26,33.06,33.06,0,0,1,4.67-3.73,23.88,23.88,0,0,1,10.38-3.8,22.16,22.16,0,0,1,10.2,1,23.83,23.83,0,0,1,8.82,5.54,28.81,28.81,0,0,1,5.93,8.4,33,33,0,0,1,2.84,9.32,30.78,30.78,0,0,1-.1,8.9,18.41,18.41,0,0,1-1.16,4.08c-.26.65-.6,1.26-.91,1.9a16.13,16.13,0,0,1-1,1.87"/><path class="cls-1" d="M185.5,487a25.9,25.9,0,0,1,5.83-8.34,27.32,27.32,0,0,1,3.61-3q.94-.64,1.89-1.17a20.78,20.78,0,0,1,2-.88c5.4-2.06,10.86-1.64,15.29,1.28a19.48,19.48,0,0,1,8.11,12.64c.13.63.21,1.25.29,1.89s.17,1.3.21,1.95a22.44,22.44,0,0,1-.08,3.93,28.26,28.26,0,0,1-2.15,7.71"/><path class="cls-1" d="M231.66,508.11a13.86,13.86,0,0,1,4.5-5.64,16.46,16.46,0,0,1,3-1.83,13.75,13.75,0,0,1,1.6-.65,14.57,14.57,0,0,1,1.73-.43,19.14,19.14,0,0,1,14.13,3.15,25.71,25.71,0,0,1,9.28,10.78c.21.47.38.94.56,1.42s.36,1,.5,1.44a13.94,13.94,0,0,1,.55,2.78,11.19,11.19,0,0,1-.83,5"/><path class="cls-1" d="M251.8,434.24a35.06,35.06,0,0,1,5.37-3.27,33.48,33.48,0,0,1,5.74-1.83,28.46,28.46,0,0,1,5.64-.68,26.33,26.33,0,0,1,5.47.68,22.37,22.37,0,0,1,9.24,4.5,24,24,0,0,1,6.29,8.3,28.76,28.76,0,0,1,2.56,10,33,33,0,0,1-.59,9.7,25.19,25.19,0,0,1-1.31,4.29,23,23,0,0,1-1.82,4,17.45,17.45,0,0,1-2.51,3.35,16.24,16.24,0,0,1-3.05,2.92"/><path class="cls-1" d="M221.08,436a32.76,32.76,0,0,1,4-3.37c.69-.48,1.38-.95,2.09-1.36s1.48-.74,2.22-1.06a24.81,24.81,0,0,1,8.79-2.08,17.11,17.11,0,0,1,7.93,1.59,15.69,15.69,0,0,1,6,4.9,17.63,17.63,0,0,1,3.08,7,23.49,23.49,0,0,1,.16,7.63,22.65,22.65,0,0,1-2.32,7.4c-.3.57-.63,1.14-1,1.69s-.68,1.15-1.06,1.7a22,22,0,0,1-2.61,3.13"/><path class="cls-1" d="M257,471.87a17.44,17.44,0,0,1,2.89-2.31,12,12,0,0,1,1.57-.87,17.14,17.14,0,0,1,1.7-.6,16,16,0,0,1,13.61,2.07,21.26,21.26,0,0,1,5.51,5.26,26.07,26.07,0,0,1,5,13.31,15.49,15.49,0,0,1-.48,5.84,9.49,9.49,0,0,1-.47,1.23,12.85,12.85,0,0,1-.53,1.2,8.43,8.43,0,0,1-1.52,2.08"/><path class="cls-1" d="M301.8,409.7a30.16,30.16,0,0,1,6.18-1.13,33,33,0,0,1,6,.3,24.26,24.26,0,0,1,5.52,1.38,26.75,26.75,0,0,1,4.87,2.55,22,22,0,0,1,7.05,7.49,23.87,23.87,0,0,1,2.94,10,29,29,0,0,1-1.12,10.23,34.14,34.14,0,0,1-4,8.84,26.16,26.16,0,0,1-2.75,3.57A30.08,30.08,0,0,1,323.4,456a18.2,18.2,0,0,1-3.53,2.26,19.13,19.13,0,0,1-3.9,1.63"/><path class="cls-1" d="M272.46,400.45a31.66,31.66,0,0,1,4.91-1.74,23.83,23.83,0,0,1,2.45-.53c.82-.1,1.64-.17,2.44-.21a24.87,24.87,0,0,1,9,1.17,19.39,19.39,0,0,1,1.93.77c.63.32,1.24.66,1.81,1a17.85,17.85,0,0,1,3.11,2.52,15.58,15.58,0,0,1,3.85,6.7,17.56,17.56,0,0,1,.39,7.68,21.11,21.11,0,0,1-1,3.67c-.22.59-.46,1.18-.73,1.75s-.55,1.18-.86,1.75a22.54,22.54,0,0,1-4.79,6.1,18.1,18.1,0,0,1-1.51,1.24c-.52.41-1,.83-1.6,1.21a20.82,20.82,0,0,1-3.55,2"/><path class="cls-1" d="M293.34,446.73a17.36,17.36,0,0,1,3.52-1.13,11.94,11.94,0,0,1,1.78-.26c.6,0,1.2,0,1.8,0a16.4,16.4,0,0,1,6.69,2,15.17,15.17,0,0,1,1.48.92c.48.36.94.74,1.39,1.15a19.18,19.18,0,0,1,2.44,2.72,21.39,21.39,0,0,1,3.29,6.86,26.15,26.15,0,0,1,.95,7.51,25.75,25.75,0,0,1-.3,3.48c-.09.55-.2,1.09-.32,1.62s-.25,1.08-.4,1.6a15.81,15.81,0,0,1-2.52,5.3,9.08,9.08,0,0,1-.87,1,11.66,11.66,0,0,1-.93.93,8.2,8.2,0,0,1-2.15,1.4"/><path class="cls-1" d="M357.24,404.44c1.07.1,2.13.23,3.16.41a18.11,18.11,0,0,1,3,.74A33.46,33.46,0,0,1,369,408c.85.47,1.67,1,2.45,1.5a16.27,16.27,0,0,1,2.22,1.75,26.88,26.88,0,0,1,3.64,4.11,23.15,23.15,0,0,1,2.56,4.56,20.23,20.23,0,0,1,1.38,4.94,23.88,23.88,0,0,1-.78,10.39,29,29,0,0,1-4.68,9.16,39.65,39.65,0,0,1-3.24,3.74,32.71,32.71,0,0,1-3.62,3.12,26.26,26.26,0,0,1-3.83,2.37l-2,.95a21.17,21.17,0,0,1-2,.8,18,18,0,0,1-4.1.89c-.69,0-1.39.13-2.1.16a15,15,0,0,1-2.12,0"/><path class="cls-1" d="M333.06,385.41a25.74,25.74,0,0,1,18,5.4,16.48,16.48,0,0,1,6.13,14.1,19.51,19.51,0,0,1-7.29,13.1,24.68,24.68,0,0,1-14.45,5.84"/><path class="cls-1" d="M336.23,436.09a15.21,15.21,0,0,1,12.67,5.45,19.14,19.14,0,0,1,3.91,13.95,25.66,25.66,0,0,1-5.08,13.25,15.51,15.51,0,0,1-4.23,4.09,11.29,11.29,0,0,1-4.87,1.7"/><path class="cls-1" d="M410.89,420.09a26.07,26.07,0,0,1-23.18,46.71"/><path class="cls-1" d="M395.09,392.82a54.77,54.77,0,0,1,6.06,2.33,22.48,22.48,0,0,1,6,3.78,9.14,9.14,0,0,1,3.07,3.51,18.81,18.81,0,0,1,1.5,3.37,19.3,19.3,0,0,1-12.11,24.39,19,19,0,0,1-3.58.85,14.25,14.25,0,0,1-3.88.05c-2.71-.47-5.79-.62-8.41-1.49"/><path class="cls-1" d="M380.1,441.33c2.4.79,4.3,1.75,5.57,3.64.57.83,1.37,1.89,2,2.95a19.47,19.47,0,0,1,1.5,3.37A19.29,19.29,0,0,1,377,475.68a19,19,0,0,1-3.58.85c-1.12.22-2.9,0-2.77.62-.28.39-.44.73-.63,1-.37.2-.2.36-1.32,0"/><path class="cls-1" d="M452.69,440.83a26.08,26.08,0,0,1-23.19,46.71"/><path class="cls-1" d="M443.85,415.47A19.25,19.25,0,0,1,426.73,450"/><path class="cls-1" d="M421.28,461a19.26,19.26,0,0,1-17.12,34.5"/><path class="cls-1" d="M494.48,461.57a26.07,26.07,0,0,1-23.18,46.71"/><path class="cls-1" d="M485.65,436.21a19.26,19.26,0,0,1-17.12,34.5"/><path class="cls-1" d="M463.08,481.69A19.26,19.26,0,0,1,446,516.19"/><path class="cls-1" d="M536.28,482.31A26.08,26.08,0,0,1,513.1,529"/><path class="cls-1" d="M527.45,457a19.26,19.26,0,0,1-17.12,34.5"/><path class="cls-1" d="M504.88,502.44a19.25,19.25,0,0,1-17.12,34.49"/><path class="cls-1" d="M578.08,503.05a26.08,26.08,0,0,1-23.18,46.72"/><path class="cls-1" d="M569.25,477.69a19.26,19.26,0,0,1-17.12,34.5"/><path class="cls-1" d="M546.68,523.18a19.25,19.25,0,0,1-17.12,34.49"/><path class="cls-1" d="M619.88,523.8a23.36,23.36,0,0,1,7.84,6.12,25.89,25.89,0,0,1,2.54,3.85,26.34,26.34,0,0,1,1.9,4.29,30.56,30.56,0,0,1,1.63,9.64A28,28,0,0,1,632,557.89a24.2,24.2,0,0,1-5.64,8.68,23,23,0,0,1-8.67,5.39c-6.49,2.43-14.86,1.59-20.95-1.45"/><path class="cls-1" d="M611.05,498.44a19.25,19.25,0,0,1-17.12,34.49"/><path class="cls-1" d="M588.48,543.92a19.26,19.26,0,0,1-17.12,34.5"/><path class="cls-1" d="M658.44,539.14c6,1.59,10.88,5.62,14.31,11a30.43,30.43,0,0,1,3.8,9,28.06,28.06,0,0,1,.56,10.34,24.4,24.4,0,0,1-3.49,9.75,23.39,23.39,0,0,1-7.21,7.24,27,27,0,0,1-21.59,3"/><path class="cls-1" d="M649.13,516.43a12.63,12.63,0,0,1,5,3.37,16.85,16.85,0,0,1,3.38,5.41,22.75,22.75,0,0,1,.8,14.38,19,19,0,0,1-8.64,11.69,16.43,16.43,0,0,1-14.08,1.2"/><path class="cls-1" d="M631.27,564a22.41,22.41,0,0,1,11.63,9.87,19.51,19.51,0,0,1,2.16,14.78,17.19,17.19,0,0,1-10,11.3,22.37,22.37,0,0,1-8.25,1.71,25.62,25.62,0,0,1-9.08-1.61"/><path class="cls-1" d="M698.58,545.15a24.45,24.45,0,0,1,16.45,7.4,29.13,29.13,0,0,1,8.68,17.83,23.63,23.63,0,0,1-6.52,19,27.16,27.16,0,0,1-20.31,7.91"/><path class="cls-1" d="M684.3,525.16c4.09.51,7.58,3,10.18,6.62a22.9,22.9,0,0,1,4.08,13.83A19,19,0,0,1,692.83,559a16.53,16.53,0,0,1-13.43,4.4"/><path class="cls-1" d="M677.84,575.53a22.3,22.3,0,0,1,13.57,6.93,19.53,19.53,0,0,1,5.5,13.9,17.11,17.11,0,0,1-7.14,13.28,23.43,23.43,0,0,1-16.84,4.08"/><path class="cls-1" d="M739,541.77a24.54,24.54,0,0,1,17.72,3.46,29.14,29.14,0,0,1,12.53,15.35,23.63,23.63,0,0,1-2,20,27,27,0,0,1-18,12.34"/><path class="cls-1" d="M720.56,525.59c4.09-.43,8.06,1.17,11.42,4.11a23,23,0,0,1,7.15,12.53,19,19,0,0,1-2.52,14.31,16.45,16.45,0,0,1-12.07,7.36"/><path class="cls-1" d="M725.8,576.1a22.46,22.46,0,0,1,14.81,3.64A19.62,19.62,0,0,1,749.14,592a17.08,17.08,0,0,1-3.91,14.57,23.35,23.35,0,0,1-15.45,7.82"/><path class="cls-1" d="M777.63,529.22a24.61,24.61,0,0,1,18-.7,29.21,29.21,0,0,1,15.71,12.07A23.69,23.69,0,0,1,814,560.5a27,27,0,0,1-14.66,16.12"/><path class="cls-1" d="M755.94,517.71a13.6,13.6,0,0,1,6-.61,18.29,18.29,0,0,1,6.06,2,22.16,22.16,0,0,1,5.55,4.28,22.75,22.75,0,0,1,4.27,6.28A20.47,20.47,0,0,1,779.7,537a17.94,17.94,0,0,1-1,7.11,16.11,16.11,0,0,1-3.82,6,16,16,0,0,1-6.24,3.92"/><path class="cls-1" d="M772.63,565.66a22.47,22.47,0,0,1,15.24.16,20.79,20.79,0,0,1,6.51,3.86A18.18,18.18,0,0,1,799,575.8a16.74,16.74,0,0,1,1.54,7.55,18.22,18.22,0,0,1-2,7.53,21.12,21.12,0,0,1-5.24,6.59,24.5,24.5,0,0,1-8,4.57"/><path class="cls-1" d="M811.65,508.43a21.19,21.19,0,0,1,7.65-4,27.56,27.56,0,0,1,8.92-1.07,31.6,31.6,0,0,1,4.77.56,32.76,32.76,0,0,1,4.75,1.28,29,29,0,0,1,9,5.13,23.74,23.74,0,0,1,6.31,8.22,22.49,22.49,0,0,1,1.6,4.9,23.52,23.52,0,0,1,.42,5.2,25.67,25.67,0,0,1-2.72,10.67,29.24,29.24,0,0,1-7.56,9.37"/><path class="cls-1" d="M788.57,501.92a11.71,11.71,0,0,1,2.75-1.3l.72-.21c.22-.06.44-.12.67-.16a10.41,10.41,0,0,1,1.38-.18,14,14,0,0,1,2.94.12,19,19,0,0,1,3,.63,25.13,25.13,0,0,1,11.88,8,18.81,18.81,0,0,1,4.6,13.71,15,15,0,0,1-2.17,6.69,15.65,15.65,0,0,1-5.14,5.23"/><path class="cls-1" d="M815.81,544.77a23.76,23.76,0,0,1,7.3-3,21.76,21.76,0,0,1,3.85-.54,22.26,22.26,0,0,1,3.83,0A19.72,19.72,0,0,1,844.21,548a16.49,16.49,0,0,1,3.06,14.93,22.52,22.52,0,0,1-1.48,4.08,25.52,25.52,0,0,1-2.4,3.85c-.47.63-1,1.24-1.51,1.84-.27.3-.55.6-.83.89s-.55.54-.83.8a27,27,0,0,1-3.75,2.89"/><path class="cls-1" d="M836.87,479.77c3.15-4.95,8.09-8.29,14.12-10.06a30.72,30.72,0,0,1,19.75.77,22.78,22.78,0,0,1,13.7,14.75c.26.85.48,1.72.66,2.62a26.21,26.21,0,0,1,.32,2.7,26.88,26.88,0,0,1-.19,5.65,32.85,32.85,0,0,1-1.45,5.74,32.47,32.47,0,0,1-2.74,5.55"/><path class="cls-1" d="M813.18,480.54a9.91,9.91,0,0,1,2-1.86,13.78,13.78,0,0,1,2.43-1.3,17.16,17.16,0,0,1,5.9-1.17,24,24,0,0,1,6.82.81,25,25,0,0,1,7,3,21.07,21.07,0,0,1,5.65,5.1,17.4,17.4,0,0,1,3.05,6.45,15.6,15.6,0,0,1,0,7,13.51,13.51,0,0,1-1.2,3.4,15.8,15.8,0,0,1-2,3.13"/><path class="cls-1" d="M852.25,513a22.9,22.9,0,0,1,2.82-2.91,28.15,28.15,0,0,1,3.2-2.31,24.22,24.22,0,0,1,7.13-2.9,21.7,21.7,0,0,1,7.62-.39,17.77,17.77,0,0,1,7.25,2.55,15.9,15.9,0,0,1,5.36,5.55,17.93,17.93,0,0,1,2.26,7.65A22.4,22.4,0,0,1,886.7,529a23.71,23.71,0,0,1-2,4.39,28.5,28.5,0,0,1-2.86,4.19"/><path class="cls-1" d="M851.76,444.58c1.44-5.7,5.06-10.43,10.24-14a30.73,30.73,0,0,1,19-5.49,22.81,22.81,0,0,1,17.66,9.69,27.3,27.3,0,0,1,3.77,22.2"/><path class="cls-1" d="M829.51,452.79a10.6,10.6,0,0,1,1.29-2.39,13.82,13.82,0,0,1,1.9-2,17,17,0,0,1,5.23-3,24.94,24.94,0,0,1,14.28-.73,18.88,18.88,0,0,1,11.9,8.23,15.67,15.67,0,0,1,2.26,6.65,14,14,0,0,1-.07,3.6,14.94,14.94,0,0,1-.91,3.61"/><path class="cls-1" d="M876.81,471.24a25.66,25.66,0,0,1,1.77-3.65,27.42,27.42,0,0,1,2.31-3.2,23.47,23.47,0,0,1,5.86-5,19.62,19.62,0,0,1,14.78-2.63,16.55,16.55,0,0,1,11.4,10.12,22.64,22.64,0,0,1,1.63,8.69,23.85,23.85,0,0,1-.48,4.78,26.77,26.77,0,0,1-1.39,4.87"/><path class="cls-1" d="M854.82,406.51c-.45-5.86,1.48-11.48,5.29-16.51a31.71,31.71,0,0,1,6.95-6.76,28.77,28.77,0,0,1,9.31-4.45,23.9,23.9,0,0,1,10.38-.49,23,23,0,0,1,9.45,4.1,27.42,27.42,0,0,1,10.59,19.89"/><path class="cls-1" d="M836.28,421.29a11.34,11.34,0,0,1,.48-2.66,12.13,12.13,0,0,1,1.17-2.51,16.41,16.41,0,0,1,4-4.45,25,25,0,0,1,13.32-5.2,18.92,18.92,0,0,1,13.88,4,16.06,16.06,0,0,1,4.25,5.6,14.93,14.93,0,0,1,1.06,3.44,14.73,14.73,0,0,1,.27,3.71"/><path class="cls-1" d="M887,423.9a27.6,27.6,0,0,1,.54-4,23.81,23.81,0,0,1,1.18-3.76,23.18,23.18,0,0,1,4-6.59,19.63,19.63,0,0,1,13.2-7.17,16.51,16.51,0,0,1,14,6,23.23,23.23,0,0,1,4.3,7.74,26,26,0,0,1,1,4.69,25.05,25.05,0,0,1,.21,5.07"/><path class="cls-1" d="M845.75,369.8c-2.25-5.14-2.18-10.87-.37-16.8a32,32,0,0,1,11.2-16.24,23.19,23.19,0,0,1,9.46-4.21,22.18,22.18,0,0,1,10.37.54,25.88,25.88,0,0,1,5.07,2.15,28.7,28.7,0,0,1,4.71,3.37,29.58,29.58,0,0,1,7.24,10.08"/><path class="cls-1" d="M832.74,389.32a11.24,11.24,0,0,1-.06-5.44,12.34,12.34,0,0,1,1-2.65,20.61,20.61,0,0,1,1.54-2.6,27,27,0,0,1,11-9,18.86,18.86,0,0,1,14.4-.83,14.51,14.51,0,0,1,3.11,1.6,13.88,13.88,0,0,1,2.67,2.29,15.53,15.53,0,0,1,3.51,6.37"/><path class="cls-1" d="M881.68,375.77a24.7,24.7,0,0,1,.84-15.51,19.82,19.82,0,0,1,10.08-11.2,16.18,16.18,0,0,1,15.31,1.36,19.93,19.93,0,0,1,3.52,2.71,25.36,25.36,0,0,1,3.1,3.52,26.6,26.6,0,0,1,4.26,8.84"/><path class="cls-1" d="M824.89,340.08a19.59,19.59,0,0,1-2.68-3.16c-.4-.56-.73-1.19-1.08-1.77a17.42,17.42,0,0,1-.93-1.83,30.14,30.14,0,0,1-2.06-8.51,33.52,33.52,0,0,1,.49-9.66,29.34,29.34,0,0,1,3.6-9.64,23.38,23.38,0,0,1,7.13-7.59,22.4,22.4,0,0,1,9.76-3.43,24.52,24.52,0,0,1,11.19,1.38c.94.33,1.89.7,2.83,1.12a25.55,25.55,0,0,1,2.71,1.48,30,30,0,0,1,5.07,3.91"/><path class="cls-1" d="M819.88,362.62c-2-2.62-2.28-6.26-1.4-10.35a27.16,27.16,0,0,1,6.73-12.53,18.86,18.86,0,0,1,13-6.25,14.82,14.82,0,0,1,12.41,5.91"/><path class="cls-1" d="M860.39,332a25.51,25.51,0,0,1-5.15-14.76,19.88,19.88,0,0,1,5-14.22c3.66-3.86,8.94-5.49,14.67-4.56s11.74,4.49,16.15,10.32"/><path class="cls-1" d="M794.39,320.91c-.65-.25-1.26-.59-1.89-.87a15.68,15.68,0,0,1-1.8-1,18.15,18.15,0,0,1-3.23-2.63,25,25,0,0,1-5.27-7A31.64,31.64,0,0,1,778.44,290a22.48,22.48,0,0,1,11.27-16.75,27.86,27.86,0,0,1,10.8-3.11,33.1,33.1,0,0,1,6.08.33,31.85,31.85,0,0,1,3.13.59,24.27,24.27,0,0,1,3.09,1"/><path class="cls-1" d="M798.39,343.56A10.18,10.18,0,0,1,795,340a16.35,16.35,0,0,1-1.81-5.44,27,27,0,0,1,1.32-14.11,19.14,19.14,0,0,1,9.51-10.88,15.67,15.67,0,0,1,6.79-1.34,13.84,13.84,0,0,1,6.89,2"/><path class="cls-1" d="M823.9,299.65a28.15,28.15,0,0,1-6.24-5.09,23.9,23.9,0,0,1-4.23-6.57,19.51,19.51,0,0,1-.95-15c1.86-5,6.08-8.51,11.78-10a24.3,24.3,0,0,1,9.2-.22,27.29,27.29,0,0,1,9.78,3.56"/><path class="cls-1" d="M758.56,315a18.62,18.62,0,0,1-4.16-.37,17.76,17.76,0,0,1-4-1.11,30,30,0,0,1-7.58-4.52,35.72,35.72,0,0,1-3.45-3.31,32,32,0,0,1-3-3.81,29.34,29.34,0,0,1-4.26-9.41,23.39,23.39,0,0,1-.29-10.38,21.21,21.21,0,0,1,4.42-9.37,24.72,24.72,0,0,1,8.79-6.94,34.15,34.15,0,0,1,5.7-2.11,32.62,32.62,0,0,1,6.33-.8"/><path class="cls-1" d="M771.19,334.33a8.23,8.23,0,0,1-4.57-2,15.23,15.23,0,0,1-3.86-4.24,26,26,0,0,1-1.59-2.91,24.43,24.43,0,0,1-1.3-3.21,26.34,26.34,0,0,1-1.32-7.45,21.49,21.49,0,0,1,1.06-7.54,17.84,17.84,0,0,1,1.5-3.33,15.68,15.68,0,0,1,2.1-2.79,16.69,16.69,0,0,1,5.78-3.94,17,17,0,0,1,7.15-.79"/><path class="cls-1" d="M777.72,284a21.63,21.63,0,0,1-7.71-2.29,22.71,22.71,0,0,1-6.41-4.35,24.52,24.52,0,0,1-2.58-2.91,20.2,20.2,0,0,1-2-3.21,17.42,17.42,0,0,1-2-7.43,15.45,15.45,0,0,1,1.7-7.56,17,17,0,0,1,2.23-3.33,18.82,18.82,0,0,1,3.09-2.79,25.4,25.4,0,0,1,8.34-3.83,32.35,32.35,0,0,1,10.29-.49"/><path class="cls-1" d="M722.83,323a26.07,26.07,0,0,1-20.78-47.83"/><path class="cls-1" d="M741.91,336.23a7.43,7.43,0,0,1-1.24.19c-.41,0-.82.09-1.23.09a9.08,9.08,0,0,1-2.54-.37,14.86,14.86,0,0,1-2.62-1,18,18,0,0,1-2.58-1.49,27.61,27.61,0,0,1-9.06-11.07,22.19,22.19,0,0,1-1.76-7.36,17.21,17.21,0,0,1,1.08-7,16.75,16.75,0,0,1,1.6-3.16,15,15,0,0,1,2.31-2.6,16.9,16.9,0,0,1,2.9-2.1,14.07,14.07,0,0,1,1.65-.82c.58-.2,1.17-.38,1.78-.53"/><path class="cls-1" d="M729.11,287.1a18.14,18.14,0,0,1-2,.39c-.67.12-1.33.24-2,.31a22,22,0,0,1-4,.08,25.4,25.4,0,0,1-3.89-.61A22.26,22.26,0,0,1,707,282.21a17.51,17.51,0,0,1-4.56-6.24c-2.22-4.85-1.61-10.28,1.4-15.21a23.43,23.43,0,0,1,2.7-3.57,24.39,24.39,0,0,1,3.59-3,31.55,31.55,0,0,1,4.33-2.54,23.41,23.41,0,0,1,2.4-1c.83-.28,1.69-.53,2.57-.75"/><path class="cls-1" d="M680,341.56a26.07,26.07,0,0,1-20.78-47.83"/><path class="cls-1" d="M705.11,351.15a19.26,19.26,0,0,1-15.34-35.33"/><path class="cls-1" d="M684.88,304.57a19.25,19.25,0,0,1-15.34-35.32"/><path class="cls-1" d="M637.23,360.15a26.07,26.07,0,0,1-20.78-47.83"/><path class="cls-1" d="M662.32,369.74A19.26,19.26,0,0,1,647,334.42"/><path class="cls-1" d="M642.09,323.17a19.26,19.26,0,0,1-15.35-35.32"/><path class="cls-1" d="M594.43,378.74a25.86,25.86,0,0,1-19.89.32,42.52,42.52,0,0,1-4.73-2.21,21.17,21.17,0,0,1-4.12-3.1,22.93,22.93,0,0,1-5.55-8.79,30.5,30.5,0,0,1-1.71-10.17,35.87,35.87,0,0,1,.3-4.91,17.06,17.06,0,0,1,1.12-4.64,25.84,25.84,0,0,1,13.81-14.33"/><path class="cls-1" d="M619.52,388.33A19.26,19.26,0,0,1,604.17,353"/><path class="cls-1" d="M599.29,341.76a19.26,19.26,0,0,1-15.35-35.32"/><path class="cls-1" d="M543.54,395.67a29.64,29.64,0,0,1-6.64.16,28.19,28.19,0,0,1-6.18-1.2,25.18,25.18,0,0,1-10-5.75,20.83,20.83,0,0,1-3.4-4.12,21.73,21.73,0,0,1-2.23-4.67,23.08,23.08,0,0,1-.84-10.35,30.49,30.49,0,0,1,3.19-9.81,36.43,36.43,0,0,1,2.54-4.21,41.85,41.85,0,0,1,2.9-3.65c4.11-4.47,8.66-7.43,13.8-8.1"/><path class="cls-1" d="M573.24,407.91c-7.33,2.51-14.78,2-20.19-.45a18,18,0,0,1-6.59-5.09,14.79,14.79,0,0,1-3-7.16,17.24,17.24,0,0,1,.79-7.67,22.68,22.68,0,0,1,3.65-6.82,27,27,0,0,1,12.87-9.25"/><path class="cls-1" d="M556.83,359.86a14.2,14.2,0,0,1-13.34-2.27,16.68,16.68,0,0,1-4.45-5.45,22.18,22.18,0,0,1-2.2-7.27,29.39,29.39,0,0,1,0-7.56,29,29,0,0,1,1.52-6.46c1.4-3.85,3.31-6.51,6-7.43"/><path class="cls-1" d="M485.38,389.28a29.83,29.83,0,0,1-10.88-6.82,28.32,28.32,0,0,1-3.74-4.63,25.54,25.54,0,0,1-2.44-5.06,21.4,21.4,0,0,1-.93-10.41,23,23,0,0,1,4-9.57,30.78,30.78,0,0,1,7.36-7.24,37.31,37.31,0,0,1,8.44-4.45c5.71-2.07,11.12-2.6,16-.82"/><path class="cls-1" d="M506,413.88c-7.67-1.17-14-5-17.66-9.75a17.79,17.79,0,0,1-3.47-7.55,14.73,14.73,0,0,1,.66-7.73,17.2,17.2,0,0,1,4.24-6.43,22.54,22.54,0,0,1,6.39-4.37,27,27,0,0,1,15.68-2.24"/><path class="cls-1" d="M513.71,363.69a14.22,14.22,0,0,1-10.77-8.19,16.93,16.93,0,0,1-1.44-6.9,22.17,22.17,0,0,1,1.41-7.47,29.78,29.78,0,0,1,3.5-6.69,29.35,29.35,0,0,1,4.35-5c3-2.76,6-4.22,8.79-3.79"/><path class="cls-1" d="M436.73,356.75c-6.16-6.73-8.66-15.33-7.43-22.53a22.91,22.91,0,0,1,1.4-5.11,20.68,20.68,0,0,1,2.57-4.53,23,23,0,0,1,8-6.65,30.55,30.55,0,0,1,9.86-3.05,38.25,38.25,0,0,1,4.86-.32,34.17,34.17,0,0,1,4.71.28c6,.88,11.06,2.89,14.56,6.73"/><path class="cls-1" d="M443.69,388.14c-6.27-4.59-10.14-11-11.18-16.85s.63-11.29,4.57-14.86,9.22-4.86,14.43-4.65a27.12,27.12,0,0,1,14.93,5.28"/><path class="cls-1" d="M473.68,347.16a14.18,14.18,0,0,1-5.75-12.24c.24-4.65,2.69-9.17,6.63-12.74a30.71,30.71,0,0,1,12.37-6.77c3.95-1.05,7.21-1,9.5.68"/><path class="cls-1" d="M408.58,305.56a28.05,28.05,0,0,1-1-6.59c-.06-1.08-.07-2.15,0-3.2a29,29,0,0,1,.4-3.11,28.29,28.29,0,0,1,1.61-5.73,27,27,0,0,1,2.79-4.92,21,21,0,0,1,8-6.72,22.6,22.6,0,0,1,10.12-2.16A30.88,30.88,0,0,1,440.63,275a38.66,38.66,0,0,1,8.47,4.37,27.18,27.18,0,0,1,3.41,2.73,24.29,24.29,0,0,1,2.87,3c.41.52.77,1.06,1.12,1.6a16.91,16.91,0,0,1,1,1.66,20.81,20.81,0,0,1,1.39,3.57"/><path class="cls-1" d="M400.4,336.64a27.52,27.52,0,0,1-2-5.25,34.9,34.9,0,0,1-1.06-5.23,26,26,0,0,1,.86-9.59,17.5,17.5,0,0,1,4.19-7.23,14.51,14.51,0,0,1,6.68-3.9c5.16-1.38,10.45-.09,15,2.49a24.59,24.59,0,0,1,6.19,4.87,22.55,22.55,0,0,1,2.59,3.09,38.74,38.74,0,0,1,2.1,3.56"/><path class="cls-1" d="M445.84,314a11.42,11.42,0,0,1-1.18-3.44,15.47,15.47,0,0,1-.32-3.5,15.15,15.15,0,0,1,2-6.57,16.44,16.44,0,0,1,4.84-5.14,21.9,21.9,0,0,1,6.89-3.13,30.83,30.83,0,0,1,14.09-.37,15.72,15.72,0,0,1,5.08,1.85,7.71,7.71,0,0,1,1.85,1.36,9.52,9.52,0,0,1,1.24,1.75"/><path class="cls-1" d="M407.42,246.92a31.27,31.27,0,0,1,2.13-6.27,35.1,35.1,0,0,1,3.24-5.37,29.46,29.46,0,0,1,4.14-4.27,25.53,25.53,0,0,1,2.25-1.7,27,27,0,0,1,2.45-1.36,21.67,21.67,0,0,1,20.2.5,33.88,33.88,0,0,1,13.63,14.17c.35.67.66,1.34.94,2s.6,1.36.84,2a22,22,0,0,1,1.08,4,16.18,16.18,0,0,1,.39,3.93,18,18,0,0,1-.42,3.86"/><path class="cls-1" d="M385.63,270.53a30.1,30.1,0,0,1,2.22-10.74,28.5,28.5,0,0,1,2.29-4.44,20.62,20.62,0,0,1,2.95-3.61,17.7,17.7,0,0,1,7-4.41,14.86,14.86,0,0,1,7.77-.3,17,17,0,0,1,6.9,3.39,22.89,22.89,0,0,1,5.17,5.79,29.18,29.18,0,0,1,1.83,3.46,23.83,23.83,0,0,1,1.37,3.73,27.94,27.94,0,0,1,1,8.08"/><path class="cls-1" d="M436.39,271.78a13.93,13.93,0,0,1,2-6.82,15.26,15.26,0,0,1,2.09-2.74,13.66,13.66,0,0,1,2.73-2.14,16.39,16.39,0,0,1,6.62-2.3,22.37,22.37,0,0,1,7.6.45,29.33,29.33,0,0,1,7.07,2.63,29.75,29.75,0,0,1,5.57,3.69,25.81,25.81,0,0,1,2,2,12.22,12.22,0,0,1,1.58,2,7.59,7.59,0,0,1,1.23,4.15"/><path class="cls-1" d="M433.25,194.6A37.48,37.48,0,0,1,438,190a19.31,19.31,0,0,1,2.64-1.81,30.43,30.43,0,0,1,2.74-1.48,29.71,29.71,0,0,1,2.76-1.18c1-.31,1.91-.56,2.86-.77a26.38,26.38,0,0,1,5.57-.61,22.09,22.09,0,0,1,10.13,2.68,22.85,22.85,0,0,1,7.62,7,30.88,30.88,0,0,1,4.29,9.39,35,35,0,0,1,1.3,9.43c.08,6.14-1.31,11.33-4.66,15.32"/><path class="cls-1" d="M403.17,205.58a27.34,27.34,0,0,1,3.14-4.66,31.13,31.13,0,0,1,3.67-3.83,25.94,25.94,0,0,1,8.32-4.74c5.78-1.78,11.24-.87,15.31,2.55a19.85,19.85,0,0,1,6.56,13.68,24.64,24.64,0,0,1-.44,7.85,25.46,25.46,0,0,1-1.06,3.89,34.86,34.86,0,0,1-1.72,3.75"/><path class="cls-1" d="M447.71,230a12.38,12.38,0,0,1,2.15-2.93,14.34,14.34,0,0,1,2.69-2.26,15.31,15.31,0,0,1,6.52-2.16,18.9,18.9,0,0,1,13.51,4.84,30,30,0,0,1,8.36,11.38,15.67,15.67,0,0,1,1.36,5.28,8.79,8.79,0,0,1-.08,2.31,8.56,8.56,0,0,1-.73,2"/><path class="cls-1" d="M480.59,160c1.05-.43,2.12-.81,3.18-1.14a22.78,22.78,0,0,1,3.21-.71,26.68,26.68,0,0,1,12.16.51,21.19,21.19,0,0,1,2.69.89,25.39,25.39,0,0,1,2.51,1.23,23,23,0,0,1,4.33,3.12,19.17,19.17,0,0,1,3.33,3.95,23.12,23.12,0,0,1,3.47,9.81,30.21,30.21,0,0,1-.59,10.28,41.76,41.76,0,0,1-1.38,4.71,32.76,32.76,0,0,1-1.9,4.28c-.35.67-.72,1.31-1.11,1.91s-.77,1.27-1.18,1.85a20.85,20.85,0,0,1-2.64,3.16,18.31,18.31,0,0,1-3,2.58c-.53.37-1.1.63-1.65,1a12.12,12.12,0,0,1-1.73.86"/><path class="cls-1" d="M448.63,155.79a31.74,31.74,0,0,1,5-2.76,33.55,33.55,0,0,1,5.12-1.67,23.53,23.53,0,0,1,9.65-.36,19.77,19.77,0,0,1,4.15,1.16,16.62,16.62,0,0,1,3.53,2.07,14.62,14.62,0,0,1,4.72,6.16,17.27,17.27,0,0,1,1.17,7.62,20.33,20.33,0,0,1-.59,3.79,24.44,24.44,0,0,1-1.2,3.75,29.61,29.61,0,0,1-4.06,6.76,22.4,22.4,0,0,1-2.79,2.89,26.65,26.65,0,0,1-3.24,2.59"/><path class="cls-1" d="M476.88,198a14.29,14.29,0,0,1,3.23-1.65,16.2,16.2,0,0,1,3.46-.69,13.7,13.7,0,0,1,6.76,1.14,16.21,16.21,0,0,1,3,1.69,18.65,18.65,0,0,1,2.67,2.45,22.19,22.19,0,0,1,4,6.47,30.33,30.33,0,0,1,1.92,7.31,31.65,31.65,0,0,1,.27,3.41,30.71,30.71,0,0,1-.07,3.22,18.63,18.63,0,0,1-1.17,5.26,7.19,7.19,0,0,1-1.12,1.92A6.2,6.2,0,0,1,498.3,230"/><path class="cls-1" d="M533.85,149.76a26.07,26.07,0,0,1,4.41,52"/><path class="cls-1" d="M512.13,132.84c.94-.11,1.88-.18,2.81-.22.21,0,.5,0,.65,0l.48,0,1,.09a18.88,18.88,0,0,1,3.68.82,19.27,19.27,0,0,1,3,35.35,21,21,0,0,1-7.45,2.23"/><path class="cls-1" d="M517.58,183.32a17.22,17.22,0,0,1,7.42.81,19.29,19.29,0,0,1,3,35.36,19.05,19.05,0,0,1-3.49,1.42l-.93.25-.47.1c-.17,0-.2.07-.31.1a5,5,0,0,1-1.08.24"/><path class="cls-1" d="M580.34,145.81a26.08,26.08,0,0,1,4.41,52"/><path class="cls-1" d="M559.64,128.71a19.26,19.26,0,0,1,3.25,38.38"/><path class="cls-1" d="M563.93,179.31a19.25,19.25,0,0,1,3.25,38.37"/><path class="cls-1" d="M623.19,142a6,6,0,0,1,.6-.11c.43-.09.85-.16,1.28-.23.85-.12,1.71-.21,2.54-.25a23.75,23.75,0,0,1,4.92.27,25.34,25.34,0,0,1,9.05,3.28A28.6,28.6,0,0,1,654,160.37a23.91,23.91,0,0,1-2.1,20,26.58,26.58,0,0,1-6.87,7.72,27,27,0,0,1-4.51,2.77,26.47,26.47,0,0,1-2.45,1c-.42.16-.85.3-1.28.44-.6.18-1.33.38-2,.55"/><path class="cls-1" d="M606.13,124.77a19.16,19.16,0,0,1,11,2.37,17.8,17.8,0,0,1,1.56,1l.38.27.18.13,0,.15c.06.21.11.42.16.62.45,1.72,1.09,3.77,1.8,6s1.49,4.6,2.08,7.2a26.81,26.81,0,0,1,.78,7.54,13.38,13.38,0,0,1-1.86,6.41A9.35,9.35,0,0,1,619.8,159a19.52,19.52,0,0,1-3.1,2,18.87,18.87,0,0,1-7.31,2.14"/><path class="cls-1" d="M610.42,175.36a19.16,19.16,0,0,1,11,2.37c1.11.6,2,1.32,3.24,2.09a37,37,0,0,1,6.28,5.35,15.42,15.42,0,0,1,3.7,6.8,12.56,12.56,0,0,1-.84,7.95c-1.14,2.85-3.33,5-6.33,7-.38.25-.77.49-1.17.73l-.31.18c-.07,0-.11.11-.17.16l-.32.33q-.66.65-1.38,1.23a18.93,18.93,0,0,1-10.41,4.18"/><path class="cls-1" d="M659.64,129.76a6.59,6.59,0,0,1,1.33-.66c.49-.16.83-.34,1.29-.45a10.42,10.42,0,0,1,1.43-.23,9,9,0,0,1,1.43-.13c.51,0,1.09,0,1.63,0s1.11,0,1.72.05,1.25.11,1.91.18,1.31.07,2,.14c1.38.11,2.92.37,4.43.55s3.1.49,4.71.87a34.92,34.92,0,0,1,9.66,3.74,20.9,20.9,0,0,1,7.45,7.19,20.2,20.2,0,0,1,2.09,4.89,19.21,19.21,0,0,1,.58,5.64,25,25,0,0,1-.28,3.06,27.17,27.17,0,0,1-.82,3.12,34,34,0,0,1-1.22,3.19,26.5,26.5,0,0,1-1.74,3.1c-.65,1-1.37,2.05-2.15,3.05s-1.67,1.86-2.59,2.76a28.06,28.06,0,0,1-2.93,2.54c-1,.76-2.09,1.48-3.2,2.16"/><path class="cls-1" d="M641,117.42a10.76,10.76,0,0,1,1.38-.36c.23,0,.48-.08.69-.1a6,6,0,0,1,.61-.06,8.72,8.72,0,0,1,2.51.24,6.05,6.05,0,0,1,1.18.38,10.75,10.75,0,0,1,1.15.54,15,15,0,0,1,2.36,1.52,44.45,44.45,0,0,1,4.61,4.5,45.59,45.59,0,0,1,4.41,6.08,24.56,24.56,0,0,1,2.94,7,16,16,0,0,1,0,6.92,12.81,12.81,0,0,1-1.26,3.15,13.21,13.21,0,0,1-2,2.81,14.82,14.82,0,0,1-6.11,3.85"/><path class="cls-1" d="M657.35,165.48a25.09,25.09,0,0,1,7.9-1.29,32.74,32.74,0,0,1,4,.22,32.12,32.12,0,0,1,3.9.81,23.68,23.68,0,0,1,7.27,3.11,16.38,16.38,0,0,1,5.52,5.43,13.15,13.15,0,0,1,1.83,7.63,18.17,18.17,0,0,1-2.68,8.3,25.49,25.49,0,0,1-2.81,3.88c-.54.62-1.13,1.23-1.75,1.83s-1.29,1.18-1.9,1.67a30.33,30.33,0,0,1-4.21,2.83l-1.16.62c-.38.19-.75.35-1.13.52-.75.33-1.53.63-2.33.9"/><path class="cls-1" d="M674.29,107.48c1.4-4.78,5-8.66,9.91-12.06a38.19,38.19,0,0,1,4-2.37,43.94,43.94,0,0,1,4.48-2,31,31,0,0,1,10.13-2,22.26,22.26,0,0,1,10.16,2.11,19.59,19.59,0,0,1,4.37,2.83A22.22,22.22,0,0,1,721,98a26.08,26.08,0,0,1,2.73,5,29.16,29.16,0,0,1,1.58,5.88,30.59,30.59,0,0,1-1,13.2"/><path class="cls-1" d="M652.82,110.48a2.27,2.27,0,0,1,.44-.59c.18-.19.39-.28.63-.55a6.59,6.59,0,0,1,1.77-1.18,16.39,16.39,0,0,1,2.3-.87,25.24,25.24,0,0,1,2.76-.58,33.43,33.43,0,0,1,6.57-.32,31.78,31.78,0,0,1,7.45,1.22,22.42,22.42,0,0,1,6.86,3.26,16.25,16.25,0,0,1,4.7,5.19,13.52,13.52,0,0,1,1.28,3.16,12.26,12.26,0,0,1,.49,3.4,16.09,16.09,0,0,1-.39,3.49,13.25,13.25,0,0,1-1.32,3.29"/><path class="cls-1" d="M697.05,135.43a29.48,29.48,0,0,1,2.32-3.53,22.72,22.72,0,0,1,2.66-3,35,35,0,0,1,3-2.6,28.14,28.14,0,0,1,3.35-2.12,23.42,23.42,0,0,1,7.34-2.6,17.09,17.09,0,0,1,7.71.36,14.44,14.44,0,0,1,6.6,4.11,17.81,17.81,0,0,1,3.93,7.47,22.19,22.19,0,0,1,.69,4.71,24.11,24.11,0,0,1-.25,5.13,35.94,35.94,0,0,1-1.26,5.35,22.71,22.71,0,0,1-1.13,2.82c-.45,1-.93,1.91-1.45,2.86"/><path class="cls-1" d="M674.74,75.25c-1.27-4.83-.29-10,2.23-15.47a35.38,35.38,0,0,1,12.7-15,22.42,22.42,0,0,1,9.81-3.42,20.94,20.94,0,0,1,10.38,1.72c.85.37,1.69.8,2.53,1.27s1.61,1,2.39,1.63a29.54,29.54,0,0,1,2.3,1.94c.72.71,1.41,1.47,2.09,2.28a30.39,30.39,0,0,1,6,11.77"/><path class="cls-1" d="M657.92,89.17c-.08-2.52,1.74-5,4.78-7.56A34.56,34.56,0,0,1,668.16,78a32.36,32.36,0,0,1,7-2.82,22.31,22.31,0,0,1,7.53-.74,16.07,16.07,0,0,1,6.71,2,14.07,14.07,0,0,1,4.94,4.7,16.09,16.09,0,0,1,1.44,3.18,14.81,14.81,0,0,1,.59,3.55"/><path class="cls-1" d="M708.66,87.4a28.83,28.83,0,0,1,3.88-15.5,24.45,24.45,0,0,1,4.94-6,17.19,17.19,0,0,1,6.82-3.67,14.14,14.14,0,0,1,7.74.11,17.18,17.18,0,0,1,7.23,4.37,25.35,25.35,0,0,1,5.5,8.24,36.33,36.33,0,0,1,1.65,5.29,35.33,35.33,0,0,1,.73,5.83"/><path class="cls-1" d="M658.5,47.35c-3.55-3.47-5.32-8.42-6-14.4a40.72,40.72,0,0,1-.23-4.62,42.82,42.82,0,0,1,.36-4.88,30.76,30.76,0,0,1,3-9.87,22.39,22.39,0,0,1,6.63-8,19.47,19.47,0,0,1,4.55-2.53A22,22,0,0,1,672,1.69a26,26,0,0,1,5.72-.06A28.84,28.84,0,0,1,683.69,3a30.58,30.58,0,0,1,11.22,7"/><path class="cls-1" d="M651.21,67.91c-1.37-2.13-1.09-5.17.24-8.95A33.21,33.21,0,0,1,654.27,53a31.42,31.42,0,0,1,4.56-6,22.5,22.5,0,0,1,6.09-4.54,16.45,16.45,0,0,1,6.78-1.73A13.71,13.71,0,0,1,683.54,47"/><path class="cls-1" d="M693.83,40.32A28.51,28.51,0,0,1,689.21,25a23.4,23.4,0,0,1,1.14-7.71,16.9,16.9,0,0,1,3.93-6.63A14.29,14.29,0,0,1,701,6.76a17.88,17.88,0,0,1,8.45,0c5.93,1.42,12.33,5.81,16.7,12.59"/></g></g></svg>